<svg width="328" height="254" viewBox="0 0 328 254" fill="none" xmlns="http://www.w3.org/2000/svg">
<path d="M101.127 45.1059C37.0545 54.6005 5.35014 108.582 1.2765 146.671C-3.70034 193.167 17.8844 217.742 58.1599 214.553C101.827 211.087 152.056 206.367 206.249 214.553C260.459 222.738 301.011 230.242 320.919 180.409C340.826 130.576 314.651 35.6482 241.308 18.9635C187.281 6.66657 167.853 35.2241 101.127 45.1059Z" fill="#ECF0F7"/>
<path d="M250.008 229.394C250.008 229.394 250.487 195.471 239.262 185.405C228.036 175.339 197.862 130.336 222.267 119.256C246.672 108.176 254.008 148.828 269.657 162.599C285.307 176.371 272.053 228.14 272.053 228.14L250.008 229.394Z" fill="#DAE1F0"/>
<path d="M265.344 236.16L264.238 236.049C264.275 235.643 268.311 195.6 261.03 177.625C257.657 169.31 250.948 161.327 243.814 152.865C235.225 142.67 226.358 132.143 221.732 119.422L222.764 119.053C227.317 131.59 236.128 142.043 244.644 152.165C251.833 160.682 258.597 168.739 262.044 177.219C269.454 195.434 265.399 235.772 265.344 236.16Z" fill="#B5C4E2"/>
<path d="M240.755 149.823C239.759 147.095 239.814 141.25 239.87 135.056C239.925 129.101 239.98 122.353 238.819 120.676L239.722 120.049C241.068 122.022 241.013 128.364 240.957 135.074C240.902 140.9 240.865 146.91 241.787 149.454L240.755 149.823Z" fill="#B5C4E2"/>
<path d="M246.082 155.557C245.215 154.524 239.815 152.275 234.119 149.897C222.525 145.085 213.585 141.14 212.682 138.135L213.732 137.821C214.562 140.587 226.119 145.38 234.543 148.883C241.584 151.814 245.953 153.658 246.93 154.856L246.082 155.557Z" fill="#B5C4E2"/>
<path d="M257.823 171.08C257.141 169.753 256.681 164.812 256.017 156.81C255.446 149.897 254.8 142.08 253.934 140.531L254.893 139.978C255.888 141.73 256.478 149.012 257.123 156.718C257.639 162.931 258.155 169.347 258.8 170.564L257.823 171.08Z" fill="#B5C4E2"/>
<path d="M262.911 183.561C261.049 180.593 251.888 178.27 243.796 176.224C235.501 174.122 227.667 172.149 225.769 169.347L226.672 168.72C228.349 171.172 236.349 173.2 244.072 175.154C253.16 177.459 261.749 179.634 263.851 182.971L262.911 183.561Z" fill="#B5C4E2"/>
<path d="M264.883 211.861C264.09 205.371 255.98 201.666 250.063 198.955C247.98 198.015 246.192 197.186 245.16 196.411L245.823 195.526C246.764 196.227 248.515 197.02 250.524 197.941C256.33 200.596 265.104 204.615 265.97 211.713L264.883 211.861Z" fill="#B5C4E2"/>
<path d="M266.247 201.002L265.141 200.928C265.307 198.531 267.519 193.388 269.86 187.931C272.348 182.105 275.187 175.505 274.984 173.182L276.09 173.09C276.33 175.671 273.675 181.847 270.892 188.355C268.68 193.498 266.413 198.79 266.247 201.002Z" fill="#B5C4E2"/>
<path d="M260.293 227.826C273.417 209.298 258.321 147.869 288.219 122.962C318.098 98.0545 339.167 112.416 320.034 147.74C300.901 183.064 294.394 224.582 284.016 228.416C273.639 232.251 260.293 227.826 260.293 227.826Z" fill="#DAE1F0"/>
<path d="M270.91 236.344L269.823 236.141C269.878 235.846 275.445 206.385 287.352 167.577C295.168 142.098 304.79 130.096 311.149 122.15C314.688 117.726 317.25 114.518 318.227 110.831L319.296 111.107C318.264 115.016 315.647 118.297 312.015 122.833C305.711 130.705 296.182 142.615 288.422 167.891C276.532 206.662 270.966 236.067 270.91 236.344Z" fill="#B5C4E2"/>
<path d="M293.915 152.625L293.048 151.925C296.551 147.555 303.831 144.163 310.891 140.863C318.08 137.508 324.882 134.337 326.08 130.779L327.13 131.129C325.766 135.13 318.78 138.393 311.37 141.859C304.421 145.122 297.251 148.477 293.915 152.625Z" fill="#B5C4E2"/>
<path d="M288.422 167.909L287.371 167.596C288.164 164.996 288.053 157.234 287.942 149.03C287.74 133.71 287.795 122.685 290.375 120.528L291.094 121.376C288.717 123.367 288.901 137.6 289.048 149.012C289.159 157.658 289.27 165.125 288.422 167.909Z" fill="#B5C4E2"/>
<path d="M281.067 193.48L279.998 193.185C281.27 188.594 288.329 183.709 295.813 178.565C302.394 174.03 309.214 169.329 311.075 165.217L312.089 165.678C310.117 170.066 303.168 174.859 296.458 179.487C289.454 184.28 282.228 189.277 281.067 193.48Z" fill="#B5C4E2"/>
<path d="M278.781 202.163L277.712 201.887C278.874 197.259 275.206 182.953 272.533 172.518C270.561 164.849 269.455 160.424 269.694 159.097L270.782 159.281C270.579 160.442 272.054 166.176 273.602 172.242C276.459 183.395 279.998 197.259 278.781 202.163Z" fill="#B5C4E2"/>
<path d="M273.804 222.904L272.717 222.664C273.288 220.046 278.191 217.429 283.869 214.405C289.159 211.584 295.15 208.395 296.145 205.537L297.196 205.906C296.053 209.151 290.117 212.322 284.385 215.382C279.426 218.037 274.265 220.784 273.804 222.904Z" fill="#B5C4E2"/>
<path d="M92.9426 167.135C92.9426 167.135 92.9057 148.735 92.5002 133.47C92.0947 118.205 106.546 101.41 109.938 92.708C113.329 83.9877 109.772 70.6584 122.011 64.7588C122.011 64.7588 114.822 77.5904 121.329 84.2458C127.836 90.9012 119.504 113.799 118.214 123.625C116.924 133.415 109.514 159.428 92.9426 167.135Z" fill="#DAE1F0"/>
<path d="M75.7448 197.425C75.7448 197.425 66.897 156.313 52.9987 138.854C39.1005 121.395 40.0405 124.049 19.7461 119.772C-0.529924 115.495 0.576038 130.373 0.576038 130.373C0.576038 130.373 11.9306 123.92 18.4742 132.438C25.0363 140.955 26.9164 152.183 39.764 169.826C52.6117 187.47 75.7448 197.425 75.7448 197.425Z" fill="#DAE1F0"/>
<path d="M32.5015 72.6863C36.5751 87.5827 67.4684 95.4365 74.565 111.273C81.6616 127.11 78.6018 165.42 78.6018 165.42C78.6018 165.42 59.3027 148.772 57.994 134.06C56.6853 119.348 46.6394 113.504 38.8608 98.5338C31.1006 83.5452 32.5015 72.6863 32.5015 72.6863Z" fill="#DAE1F0"/>
<path d="M86.9887 234.924L85.8827 234.998C85.8643 234.574 83.0072 192.54 78.0672 165.531L77.6802 163.411C72.8692 137.065 69.9753 121.155 55.3765 107.051C40.3723 92.5236 32.0776 73.1104 32.0038 72.9076L33.0176 72.4835C33.0914 72.6679 41.3124 91.8968 56.1507 106.259C70.9891 120.602 73.9199 136.641 78.7677 163.208L79.1548 165.328C84.1132 192.392 86.9703 234.5 86.9887 234.924Z" fill="#DAE1F0"/>
<path d="M84.7953 220.931C83.505 207.455 71.6158 191.692 59.0447 175.007C51.561 165.07 43.8193 154.819 37.331 143.96L38.271 143.389C44.7225 154.192 52.4458 164.425 59.9111 174.325C72.5928 191.139 84.5556 207.031 85.8828 220.821L84.7953 220.931Z" fill="#B5C4E2"/>
<path d="M82.4727 196.964C81.0349 185.479 86.2329 177.016 91.2467 168.849C94.4355 163.65 97.735 158.285 99.2833 152.183C103.228 136.641 106.214 107.254 106.232 106.959L107.338 107.07C107.302 107.365 104.315 136.826 100.352 152.441C98.7672 158.709 95.4125 164.148 92.1867 169.421C87.044 177.809 82.1777 185.718 83.5602 196.817L82.4727 196.964Z" fill="#B5C4E2"/>
<path d="M139.19 176.887C139.19 176.887 135.117 215.235 131.614 219.659C128.131 224.084 116.334 226.296 116.334 232.196C116.334 238.095 214.396 237.358 215.133 232.196C215.871 227.034 205.806 223.347 201.991 219.659C198.175 215.972 193.751 176.887 193.751 176.887H139.19Z" fill="#273B63"/>
<path d="M131.651 227.587L131.596 226.481C132.02 226.462 173.641 224.287 202.009 226.481L201.917 227.587C173.623 225.411 132.075 227.568 131.651 227.587Z" fill="#C8F2E9"/>
<path d="M58.6208 39.8701C51.5426 42.7092 50.4367 179.542 58.5471 186.917C66.6575 194.291 267.943 192.816 270.892 186.917C273.842 181.017 280.145 46.0831 268.607 38.7086C257.068 31.3341 75.837 32.9381 58.6208 39.8701Z" fill="#273B63"/>
<path d="M65.2566 47.7423C59.6899 51.7245 61.57 158.894 65.2566 163.318C68.9431 167.743 256.957 167.743 262.118 163.318C267.279 158.894 265.805 52.3698 262.118 47.7423C258.432 43.1148 71.1551 43.5204 65.2566 47.7423Z" fill="#DAE1F0"/>
<path d="M187.65 166.637C187.65 166.637 187.65 152.257 190.231 147.095C192.811 141.933 202.765 124.971 206.82 107.273C210.875 89.5739 206.083 45.3272 200.553 45.3272C195.023 45.3272 195.392 78.1435 195.392 78.1435C195.392 78.1435 195.761 36.8465 189.125 36.8465C182.489 36.8465 182.12 75.5624 182.12 75.5624C182.12 75.5624 182.489 29.4721 174.747 29.4721C167.005 29.4721 167.374 75.1937 167.374 75.1937C167.374 75.1937 167.061 37.584 159.835 37.584C152.609 37.584 154.103 95.1047 152.259 112.066C150.416 129.027 159.835 166.637 159.835 166.637H187.65Z" fill="white"/>
<path d="M204.203 116.491C205.216 113.486 206.101 110.388 206.82 107.273C207.723 103.327 208.184 98.0729 208.295 92.284C191.023 95.1047 163.558 105.853 152.407 110.388C152.351 110.978 152.296 111.531 152.241 112.048C152.167 112.73 152.112 113.467 152.075 114.205C161.955 117.707 185.622 124.381 204.203 116.491Z" fill="#ECF0F7"/>
<path d="M88.0579 5.8738C85.0903 10.6303 84.4267 103.217 88.0579 109.43C91.6892 115.643 231.981 111.55 238.193 103.493C244.404 95.4366 240.773 17.7651 238.193 7.92021C235.612 -1.88781 93.2375 -2.40403 88.0579 5.8738Z" fill="#B5C4E2"/>
<path d="M163.614 84.6145C149.494 84.6145 90.1593 9.41354 87.634 6.20565L88.5004 5.52351C89.1087 6.29783 150.01 83.5084 163.614 83.5084C177.217 83.5084 237.179 8.36268 237.769 7.6068L238.635 8.28893C236.147 11.4046 177.733 84.6145 163.614 84.6145Z" fill="#3D5C9B"/>
<path d="M88.4634 109.817L87.6524 109.061C87.9289 108.766 115.799 78.4938 137.66 63.5052L138.287 64.427C116.537 79.3418 88.7399 109.522 88.4634 109.817Z" fill="#3D5C9B"/>
<path d="M237.787 103.899C213.769 78.1066 192.479 61.385 192.277 61.2191L192.959 60.3526C193.18 60.5185 214.525 77.2954 238.598 103.161L237.787 103.899Z" fill="#3D5C9B"/>
<path d="M151.669 72.0595C144.296 72.0595 149.678 88.4677 147.467 96.2109C145.255 103.954 138.619 110.96 140.462 123.865C142.305 136.77 152.628 145.251 154.84 151.151C157.052 157.05 154.84 166.637 154.84 166.637H179.539C179.539 166.637 178.065 157.419 177.328 138.245C176.59 119.072 161.899 115.384 159.835 112.435C157.789 109.485 163.687 101.742 163.319 91.7862C162.95 81.8307 155.522 72.0595 151.669 72.0595Z" fill="white"/>
<path d="M165.42 185.276C165.236 185.276 165.052 185.276 164.867 185.257C160.959 184.944 159.688 181.976 159.78 179.542C159.89 176.648 161.844 173.661 164.923 173.661C167.835 173.661 170.01 174.675 171.079 176.5C172.019 178.141 171.945 180.298 170.895 182.142C169.733 184.096 167.687 185.276 165.42 185.276ZM164.923 174.749C162.526 174.749 160.978 177.201 160.886 179.579C160.812 181.626 161.826 183.912 164.959 184.151C165.107 184.17 165.273 184.17 165.42 184.17C167.3 184.17 168.978 183.193 169.918 181.552C170.784 180.058 170.858 178.325 170.102 177.017C169.254 175.56 167.411 174.749 164.923 174.749Z" fill="#C8F2E9"/>
<path d="M75.4683 3.03518C94.6568 6.22463 96.924 19.1299 96.5554 35.575C96.2051 52.02 106.214 62.7498 112.997 62.7498C112.997 62.7498 104.057 65.9762 97.2742 62.7498C90.4725 59.5235 83.6893 68.465 66.1782 64.1879C48.6671 59.8922 32.9255 47.1713 40.4461 25.1032C47.9482 3.03518 62.6022 0.878147 75.4683 3.03518Z" fill="#7BE1C9"/>
<path d="M66.6206 28.9374C66.6206 28.9374 73.2564 15.5159 79.8922 22.2819C86.528 29.048 70.1597 40.9393 67.063 48.4981C67.063 48.4981 49.81 31.8872 56.8881 22.2819C63.9663 12.6767 66.6206 28.9374 66.6206 28.9374Z" fill="white"/>
<path d="M205.014 77.1848C205.014 77.1848 211.649 63.7633 218.285 70.5293C224.921 77.2954 208.553 89.1867 205.456 96.7455C205.456 96.7455 188.203 80.1345 195.281 70.5293C202.359 60.9241 205.014 77.1848 205.014 77.1848Z" fill="#65BAA6"/>
<path d="M213.806 51.7798C232.663 54.9324 234.893 67.598 234.543 83.7665C234.193 99.935 244.036 110.48 250.708 110.48C250.708 110.48 241.916 113.652 235.243 110.48C228.571 107.309 221.88 116.104 204.663 111.882C187.447 107.66 171.982 95.1416 179.355 73.4607C186.747 51.7798 201.161 49.6781 213.806 51.7798Z" fill="white"/>
<path d="M205.014 77.1848C205.014 77.1848 211.649 63.7633 218.285 70.5293C224.921 77.2954 208.553 89.1867 205.456 96.7455C205.456 96.7455 188.203 80.1345 195.281 70.5293C202.359 60.9241 205.014 77.1848 205.014 77.1848Z" fill="#7BE1C9"/>
<path d="M148.982 216.578C148.864 217.734 148.682 218.866 148.428 219.966C145.183 233.983 130.628 243.702 104.659 245.467C52.2236 249.029 23.3345 245.863 13.045 220.931C10.718 215.295 9.81542 208.014 9.94272 200.059C10.3704 172.784 22.8279 137.516 31.25 133.076C42.1327 127.337 49.8495 130.306 49.8495 130.306C67.46 134.065 95.5574 185.71 117.521 187.688C139.484 189.667 150.518 201.207 148.982 216.578Z" fill="#95E7D4"/>
<path d="M33.6228 164.537C33.6228 164.537 46.6823 175.024 51.2333 186.699C55.7842 198.373 55.7842 208.663 65.2819 210.641C74.7797 212.619 92.5887 213.807 110.595 208.464C128.601 203.122 128.997 196.79 110.002 193.426C91.0064 190.063 70.23 172.057 64.2941 159.195C58.3582 146.332 58.5555 141.188 54.7964 137.825C51.0372 134.462 45.4959 133.274 39.9559 139.803C34.4159 146.332 31.2487 157.216 33.6228 164.537Z" fill="#65BAA6"/>
<path d="M73.3157 129.533C73.5435 129.222 73.8249 128.942 74.0413 128.628C75.0113 127.219 73.9483 125.621 72.7377 124.796C71.9154 124.236 71.7932 123.79 71.9943 122.763C72.1534 121.951 72.6143 121.413 72.4577 120.566C72.3278 119.86 72.0185 118.85 71.466 118.39C70.9008 117.919 70.0683 117.958 69.4165 117.68C67.7998 116.991 69.302 115.703 68.612 114.495C67.5783 112.686 64.6237 113.12 62.8657 112.853C62.8785 112.856 62.8874 112.852 62.8899 112.839C61.3802 112.238 61.1167 110.652 59.1804 110.974C58.2664 111.126 57.6325 111.7 56.87 112.149C55.5473 112.929 54.4335 111.858 53.1529 112.339C51.7055 112.884 50.5509 114.188 50.1435 115.679C49.577 117.754 48.3753 117.147 46.7396 117.891C45.8714 118.287 44.7906 118.564 44.9714 119.779C45.0681 120.429 45.641 120.986 45.6868 121.629C45.7441 122.45 44.9676 122.916 44.5106 123.527C44.0192 124.185 43.6984 125.145 44.0307 125.934C44.3884 126.787 45.3902 127.206 45.4373 128.245C45.5022 129.692 43.4667 130.878 44.2967 132.46C44.8454 133.505 46.0343 133.505 46.8249 134.173C47.3557 134.622 47.2806 135.293 47.2195 135.894C47.0527 137.541 47.8178 139.003 49.7489 138.622C51.1556 138.345 52.1829 138.185 53.1821 139.396C54.0541 140.453 54.9109 140.976 56.385 140.851C57.3219 140.771 58.1901 140.383 59.0862 140.132C59.9264 139.896 60.1848 140.036 60.9384 140.269C62.5284 140.761 63.4488 139.245 64.9267 139.264C65.4945 139.271 65.8674 139.699 66.4467 139.796C67.1188 139.908 67.8533 139.686 68.4287 139.348C69.1848 138.902 69.5425 138.374 69.7997 137.548C70.0212 136.835 70.1803 136.581 70.869 136.291C72.6143 135.554 73.5639 134.747 73.4493 132.708C73.4035 131.901 72.8294 131.254 72.9172 130.461C72.958 130.099 73.1171 129.804 73.3157 129.533Z" fill="#1C2A47"/>
<path d="M136.978 248.567C136.978 251.372 110.933 253.646 78.8037 253.646C46.6748 253.646 20.6295 251.373 20.6295 248.567C20.6295 245.761 46.6748 243.488 78.8037 243.488C110.933 243.489 136.978 245.763 136.978 248.567Z" fill="#DAE1F0"/>
<path d="M73.5933 155.172C73.5933 155.172 84.6084 166.781 89.0931 167.902L81.9033 172.453L72.3394 167.11C72.3406 167.11 68.7788 157.612 73.5933 155.172Z" fill="#B5C4E2"/>
<path d="M73.5933 155.172L73.5006 155.26C73.5019 155.261 76.2566 158.165 79.5753 161.21C81.234 162.732 83.034 164.292 84.7029 165.542C85.5379 166.167 86.3386 166.714 87.0757 167.143C87.8128 167.571 88.4836 167.88 89.0628 168.025L89.0931 167.902L89.0259 167.795L81.901 172.305L72.4033 166.999L72.3409 167.11L72.4606 167.066C72.4606 167.066 72.4555 167.053 72.4466 167.029C72.3091 166.653 71.1991 163.496 71.2003 160.483C71.2003 159.397 71.3442 158.332 71.7235 157.423C72.1029 156.514 72.7114 155.764 73.6521 155.285L73.5933 155.172L73.5362 155.059C72.5357 155.565 71.8826 156.373 71.488 157.325C71.0921 158.277 70.9457 159.374 70.9457 160.483C70.947 163.761 72.22 167.148 72.2225 167.156L72.2391 167.199L81.9099 172.602L89.4142 167.851L89.1252 167.778C88.5829 167.644 87.9286 167.344 87.2043 166.923C84.6672 165.449 81.2811 162.485 78.5378 159.895C77.1655 158.599 75.9524 157.396 75.0829 156.518C74.6476 156.078 74.2988 155.72 74.0582 155.471C73.9385 155.347 73.8456 155.25 73.7819 155.185C73.7196 155.119 73.6865 155.084 73.6865 155.084L73.6215 155.016L73.5375 155.059L73.5933 155.172Z" fill="#3D5C9B"/>
<path d="M79.4298 180.07C79.4298 180.07 97.0072 177.334 107.825 182.214C118.642 187.095 115.74 195.274 112.31 202.265C108.879 209.256 105.714 211.895 105.714 211.895L99.1191 209.125C99.1191 209.125 101.493 197.253 105.451 191.316C105.451 191.316 90.0173 199.495 81.7059 199.099C73.3959 198.703 73.527 183.137 73.527 183.137L79.4298 180.07Z" fill="#1C2A47"/>
<path d="M54.1866 142.543C54.1866 142.543 49.651 144.949 46.2215 146.268C42.7921 147.586 41.7368 152.666 43.715 156.359C45.6932 160.053 50.6401 169.484 52.7507 175.091C54.8613 180.697 56.0821 185.314 56.0821 185.314C56.0821 185.314 67.5911 187.524 73.9892 185.215C80.3872 182.907 79.4312 180.07 79.4312 180.07C79.4312 180.07 75.3092 165.593 74.7148 161.701C74.7148 161.701 76.4957 157.677 75.0444 154.117C73.5932 150.555 69.8341 149.104 67.987 146.927C66.1399 144.752 58.9845 141.918 54.1866 142.543Z" fill="white"/>
<path d="M68.1868 127.552C68.0366 129.53 67.8622 131.517 68.1308 134.28C68.3447 136.536 67.2601 138.324 64.126 140.857C64.126 140.857 62.9778 140.96 61.6806 140.58C61.6564 140.58 61.6335 140.572 61.6093 140.565L61.9021 142.734L61.9657 143.193L62.0052 143.526C62.0052 143.526 62.0523 144.918 60.4216 145.314C58.7833 145.71 55.42 144.126 54.1852 142.544C54.1852 142.544 54.3826 136.608 53.8848 134.281C53.8848 134.281 52.3572 131.757 51.5107 128.298C50.6718 124.832 53.2674 121.46 55.6823 120.217C58.1048 118.982 65.4181 118.943 67.642 123.993C67.6407 123.99 68.3383 125.573 68.1868 127.552Z" fill="#B5C4E2"/>
<path d="M68.1868 127.552L68.0596 127.542C67.9667 128.769 67.8636 130.004 67.8636 131.428C67.8636 132.299 67.9018 133.24 68.0049 134.291C68.0215 134.47 68.0304 134.644 68.0304 134.816C68.0291 135.797 67.7529 136.695 67.1176 137.647C66.4812 138.598 65.4831 139.598 64.0472 140.758L64.1274 140.857L64.1159 140.73H64.1108C64.0828 140.733 63.9517 140.742 63.7455 140.742C63.3101 140.742 62.5425 140.698 61.7176 140.456L61.6998 140.451H61.682V140.464L61.6833 140.451H61.682V140.464L61.6833 140.451L61.6756 140.45L61.6514 140.442L61.4579 140.377L61.7787 142.748L61.8424 143.207L61.9684 143.189L61.8424 143.205L61.8819 143.537L62.0079 143.522L61.8806 143.524V143.533C61.8806 143.589 61.8704 143.92 61.682 144.273C61.5878 144.45 61.449 144.632 61.2441 144.793C61.0379 144.955 60.7642 145.096 60.395 145.186C60.2346 145.225 60.0513 145.244 59.8527 145.243C59.01 145.244 57.8796 144.897 56.8344 144.371C55.7881 143.846 54.8206 143.144 54.2885 142.46L54.1879 142.539L54.3152 142.543C54.3152 142.542 54.3534 141.378 54.3534 139.878C54.3534 138.934 54.3381 137.856 54.2872 136.85C54.2363 135.843 54.1523 134.911 54.011 134.249L54.0059 134.229L53.9944 134.211C53.9944 134.211 53.9893 134.202 53.9779 134.183C53.8111 133.899 52.4235 131.487 51.6343 128.262C51.5261 127.818 51.4764 127.375 51.4764 126.937C51.4764 125.49 52.0238 124.102 52.8334 122.941C53.6418 121.782 54.7124 120.852 55.7397 120.324C56.1292 120.126 56.6613 119.955 57.2838 119.835C57.9063 119.716 58.6217 119.647 59.3792 119.647C60.8876 119.647 62.5654 119.922 64.0434 120.608C65.5213 121.295 66.7981 122.39 67.5237 124.037L67.525 124.04C67.5543 124.107 68.0813 125.356 68.08 126.982C68.08 127.163 68.0736 127.348 68.0596 127.538L68.1868 127.552L68.3142 127.562C68.3295 127.366 68.3359 127.174 68.3359 126.987C68.3359 125.253 67.7618 123.95 67.7579 123.939C67.0043 122.226 65.6715 121.087 64.1516 120.381C62.6304 119.675 60.9182 119.396 59.3792 119.396C58.6064 119.396 57.877 119.466 57.2367 119.59C56.5964 119.713 56.0452 119.887 55.6251 120.103C54.5545 120.654 53.4598 121.607 52.6259 122.801C51.7934 123.994 51.2244 125.43 51.2231 126.942C51.2231 127.399 51.2753 127.863 51.3873 128.327C52.239 131.806 53.7729 134.34 53.7767 134.346L53.8862 134.28L53.7615 134.307C53.8977 134.942 53.983 135.867 54.0326 136.867C54.0823 137.866 54.0975 138.94 54.0975 139.882C54.0975 140.629 54.0873 141.294 54.0784 141.771C54.0733 142.009 54.0683 142.202 54.0657 142.334C54.0619 142.466 54.0593 142.538 54.0593 142.538L54.0581 142.584L54.0861 142.62C54.6576 143.352 55.6467 144.065 56.7186 144.602C57.7905 145.14 58.9412 145.5 59.8514 145.501C60.0666 145.501 60.269 145.481 60.4535 145.436C60.8545 145.34 61.1639 145.182 61.3994 144.997C61.7533 144.72 61.9379 144.381 62.0321 144.101C62.1263 143.821 62.1339 143.598 62.1339 143.536V143.514L62.0932 143.174L62.0295 142.715L61.7367 140.547L61.6107 140.563L61.57 140.684C61.5941 140.692 61.6285 140.706 61.682 140.707V140.58L61.6463 140.702C62.5043 140.953 63.2949 140.997 63.7468 140.997C63.9912 140.997 64.1363 140.985 64.1401 140.985L64.1783 140.981L64.2089 140.957C65.655 139.788 66.6721 138.773 67.3315 137.789C67.9909 136.805 68.2888 135.848 68.2875 134.817C68.2875 134.636 68.2786 134.454 68.2608 134.27C68.1589 133.226 68.1208 132.294 68.1208 131.431C68.1208 130.019 68.2226 128.792 68.3168 127.564L68.1868 127.552Z" fill="#3D5C9B"/>
<path d="M54.4578 131.235C54.4578 131.235 54.4718 131.25 54.4986 131.279C54.5889 131.38 54.8168 131.641 55.0205 131.939C55.2254 132.235 55.4036 132.572 55.4024 132.81C55.4024 132.847 55.3986 132.881 55.3896 132.913C55.3324 133.124 55.214 133.245 55.1045 133.366C54.995 133.486 54.8932 133.609 54.8932 133.814C54.8932 133.912 54.9161 134.028 54.9708 134.169C55.2433 134.888 55.4176 135.186 55.4189 135.188C55.4278 135.203 55.4469 135.208 55.4622 135.199C55.4775 135.19 55.4826 135.171 55.4737 135.156C55.4737 135.156 55.4635 135.138 55.4431 135.1C55.382 134.984 55.2343 134.683 55.0307 134.146C54.9785 134.009 54.9581 133.901 54.9581 133.813C54.9581 133.632 55.0434 133.529 55.1529 133.408C55.2611 133.288 55.3909 133.156 55.452 132.929C55.4622 132.891 55.4673 132.852 55.4673 132.81C55.466 132.505 55.2242 132.107 54.9848 131.777C54.7455 131.449 54.5062 131.193 54.5049 131.193C54.4935 131.18 54.4731 131.179 54.4604 131.192C54.4464 131.202 54.4451 131.222 54.4578 131.235Z" fill="#273B63"/>
<path d="M67.4416 128.294C67.4416 128.294 66.5019 127.998 65.24 128.888C65.24 128.888 65.4628 127.873 66.2052 127.749C66.9475 127.627 67.4416 128.294 67.4416 128.294Z" fill="#273B63"/>
<path d="M62.3716 129.195C62.3716 129.195 61.698 128.377 60.7125 128.521C59.7269 128.665 58.982 129.049 58.982 129.049C58.982 129.049 59.415 128.088 60.3763 127.872C61.3389 127.656 62.108 128.209 62.3716 129.195Z" fill="#273B63"/>
<path d="M65.5748 130.792C65.5404 131.29 65.6716 131.704 65.8689 131.718C66.0663 131.732 66.2547 131.34 66.2904 130.842C66.3248 130.344 66.1936 129.93 65.9963 129.916C65.7989 129.903 65.6092 130.296 65.5748 130.792Z" fill="#273B63"/>
<path d="M61.2466 131.387C61.2122 131.884 61.3434 132.298 61.5407 132.312C61.7381 132.326 61.9266 131.934 61.9622 131.436C61.9966 130.938 61.8654 130.525 61.6681 130.511C61.4694 130.497 61.281 130.889 61.2466 131.387Z" fill="#273B63"/>
<path d="M64.3796 131.477C64.3796 131.477 64.4509 131.602 64.5591 131.798C64.7208 132.092 64.9628 132.549 65.1652 132.989C65.3677 133.429 65.5269 133.858 65.5269 134.079C65.5269 134.144 65.5128 134.189 65.4912 134.209C65.4186 134.282 65.276 134.362 65.1054 134.439C64.8495 134.552 64.5286 134.659 64.2714 134.735C64.1428 134.773 64.0307 134.805 63.9505 134.827C63.8703 134.849 63.8232 134.861 63.8232 134.861C63.8066 134.865 63.7964 134.883 63.8002 134.899C63.8041 134.916 63.8219 134.926 63.8385 134.922C63.8385 134.922 64.181 134.836 64.5642 134.71C64.7552 134.646 64.9564 134.573 65.1309 134.497C65.3053 134.419 65.4517 134.339 65.5358 134.255C65.5765 134.214 65.5905 134.153 65.5905 134.079C65.5905 133.914 65.5167 133.672 65.4084 133.394C65.0837 132.567 64.4356 131.445 64.4356 131.445C64.4267 131.43 64.4076 131.425 64.3923 131.434C64.3771 131.441 64.3707 131.462 64.3796 131.477Z" fill="#273B63"/>
<path d="M64.0081 136.112C64.0081 136.112 63.9725 136.117 63.9063 136.122C63.84 136.127 63.7458 136.132 63.63 136.132C63.1856 136.132 62.4292 136.055 61.7875 135.605C61.7735 135.595 61.7531 135.599 61.7429 135.613C61.7327 135.627 61.7366 135.647 61.7506 135.657C62.4089 136.117 63.1779 136.196 63.6287 136.196C63.8655 136.196 64.0145 136.174 64.0158 136.174C64.0336 136.172 64.0451 136.155 64.0425 136.139C64.0412 136.122 64.0247 136.109 64.0081 136.112Z" fill="#273B63"/>
<path d="M57.7637 125.557C57.7637 125.557 58.3072 126.596 58.0106 128.921C57.714 131.245 57.5651 130.405 57.3678 131.444C57.1705 132.482 57.714 133.274 57.0215 134.114C56.329 134.956 57.3678 131.888 55.191 130.057C53.0142 128.227 53.559 133.619 54.1026 134.658C54.6461 135.697 55.5372 136.093 55.5372 136.093L54.1522 137.725C54.1522 137.725 47.4741 134.559 47.8204 127.881C48.1666 121.203 52.0747 119.372 52.0747 119.372C52.0747 119.372 55.3399 114.771 63.6003 116.899C71.862 119.026 70.8487 125.794 70.7736 126.792C70.5763 129.415 68.0036 129.463 68.0036 129.463C68.0036 129.463 68.2505 126.693 66.4696 125.06C66.4696 125.06 65.9744 126.198 64.2432 126.643C62.5119 127.089 63.3533 125.505 63.6996 124.813C63.6996 124.813 62.7105 126.148 61.1269 126.148C59.5446 126.151 57.7637 125.557 57.7637 125.557Z" fill="#1C2A47"/>
<path d="M61.9657 143.192C61.2134 142.995 60.0499 142.551 58.6025 141.586C55.9356 139.805 56.3786 136.441 56.3786 136.441C57.5179 139.164 61.1281 140.351 61.1281 140.351L61.682 140.58C61.6578 140.58 61.6347 140.572 61.6105 140.565L61.9033 142.734L61.9657 143.192Z" fill="#273B63"/>
<path d="M45.6271 147.586C49.11 147.227 51.7617 151.016 55.1249 157.876C58.4881 164.736 62.0499 175.223 62.0499 175.223C62.0499 175.223 77.9457 173.442 83.0898 169.353C83.0898 169.353 84.2113 165.198 85.0031 164.209C85.7949 163.22 87.311 162.494 88.3014 161.966C89.2905 161.438 89.9499 160.911 89.9499 160.911L86.0584 171.266C86.0584 171.266 83.4195 173.707 81.9696 175.092C80.5184 176.477 64.9523 184.656 58.7529 183.072C52.5535 181.489 44.8353 165.198 43.9786 161.24C43.1219 157.283 41.1424 148.049 45.6271 147.586Z" fill="#B5C4E2"/>
<path d="M45.6271 147.586L45.6397 147.712C45.7874 147.697 45.9325 147.689 46.0764 147.689C46.8682 147.689 47.6154 147.916 48.3486 148.36C49.4485 149.026 50.514 150.187 51.6024 151.8C52.6908 153.412 53.8046 155.474 55.0102 157.931C56.6892 161.354 58.4192 165.688 59.7291 169.165C60.3847 170.904 60.9346 172.427 61.3204 173.517C61.5138 174.062 61.6653 174.499 61.7697 174.798C61.8741 175.098 61.9288 175.261 61.9288 175.261L61.9619 175.358L62.0638 175.346C62.0663 175.346 66.0431 174.901 70.6666 173.942C72.9783 173.464 75.4517 172.856 77.6731 172.112C79.8945 171.367 81.8625 170.486 83.1699 169.449L83.203 169.423L83.2144 169.382C83.2144 169.382 83.2322 169.317 83.2641 169.203C83.3761 168.799 83.6689 167.777 84.0189 166.749C84.1933 166.234 84.383 165.72 84.5701 165.281C84.7573 164.843 84.9457 164.48 85.1035 164.283C85.4841 163.807 86.0506 163.384 86.6451 163.017C87.2409 162.651 87.8646 162.338 88.3611 162.073C89.3604 161.54 90.0249 161.007 90.03 161.005L89.951 160.906L89.8314 160.861L85.9399 171.217L86.0595 171.261L85.973 171.168C85.973 171.168 83.3341 173.609 81.8816 174.995C81.8065 175.066 81.6817 175.166 81.515 175.283C80.8861 175.727 79.6653 176.444 78.0919 177.266C75.7305 178.5 72.571 179.97 69.3911 181.131C66.2124 182.293 63.0109 183.143 60.582 183.142C59.9188 183.142 59.3141 183.078 58.7846 182.944C57.2786 182.562 55.6441 181.263 54.0452 179.459C51.6444 176.756 49.3148 172.926 47.5097 169.405C46.6072 167.645 45.8345 165.962 45.2476 164.535C44.6608 163.108 44.2611 161.935 44.1032 161.207C43.6615 159.171 42.9245 155.737 42.9257 152.839C42.9257 151.475 43.0899 150.232 43.5138 149.318C43.7252 148.859 44.0001 148.485 44.3476 148.211C44.6964 147.938 45.1191 147.762 45.6423 147.709L45.6271 147.586L45.6143 147.46C45.0491 147.518 44.5755 147.712 44.1885 148.017C43.6093 148.472 43.2312 149.166 42.997 149.999C42.7628 150.831 42.6699 151.808 42.6699 152.845C42.6699 155.784 43.412 159.228 43.8537 161.267C44.0727 162.275 44.7168 164.036 45.6601 166.15C47.0744 169.32 49.1583 173.271 51.4751 176.585C52.6335 178.242 53.8492 179.739 55.0725 180.9C56.2959 182.061 57.5256 182.889 58.7209 183.194C59.2772 183.337 59.9022 183.401 60.5807 183.401C62.3489 183.401 64.485 182.965 66.7216 182.294C70.0759 181.289 73.653 179.752 76.5185 178.349C77.9519 177.648 79.2058 176.978 80.1656 176.425C80.6455 176.148 81.0516 175.9 81.3711 175.69C81.6907 175.48 81.9211 175.311 82.0573 175.182C82.7816 174.491 83.8038 173.534 84.6452 172.751C85.0653 172.359 85.4409 172.011 85.7107 171.76C85.8457 171.636 85.9539 171.535 86.029 171.465C86.1041 171.395 86.1448 171.358 86.1448 171.358L86.1665 171.338L90.2311 160.521L89.8632 160.815C89.7906 160.873 89.1592 161.363 88.2414 161.853C87.7488 162.115 87.1199 162.431 86.5114 162.805C85.903 163.18 85.3148 163.615 84.9037 164.128C84.7955 164.262 84.6885 164.442 84.5803 164.655C84.201 165.398 83.8 166.56 83.4907 167.54C83.1826 168.521 82.9674 169.317 82.9674 169.319L83.0909 169.352L83.012 169.253C81.7467 170.258 79.799 171.135 77.5929 171.874C74.2831 172.984 70.3916 173.789 67.3301 174.318C65.7987 174.581 64.4748 174.776 63.5341 174.905C63.0631 174.968 62.6888 175.017 62.4317 175.048C62.3031 175.064 62.2038 175.076 62.1376 175.084C62.0701 175.092 62.0358 175.096 62.0358 175.096L62.0498 175.222L62.1707 175.181C62.1694 175.178 58.6089 164.691 55.2393 157.819C53.629 154.534 52.1803 151.95 50.7164 150.177C49.9844 149.291 49.2474 148.606 48.481 148.141C47.7147 147.677 46.9178 147.434 46.0764 147.435C45.9236 147.435 45.7696 147.442 45.6143 147.459L45.6271 147.586Z" fill="#3D5C9B"/>
<path d="M56.082 185.315C56.082 185.315 52.2897 198.572 61.7875 205.3C71.2852 212.027 95.822 196.99 104.528 186.7C104.528 186.7 117.851 205.036 129.196 210.576L134.605 205.563C134.605 205.563 119.302 183.138 111.256 177.993C103.209 172.848 77.6171 182.874 77.6171 182.874C77.6171 182.874 62.7766 186.435 56.082 185.315Z" fill="#3D5C9B"/>
<path d="M152.676 207.608C152.148 207.475 151.754 208.004 151.159 208.135C150.566 208.267 143.179 210.774 140.078 211.433L134.605 205.563L129.196 210.576L134.771 215.043C135.347 216.105 136.571 218.14 138.166 219.547C140.409 221.525 142.19 220.668 143.179 219.943C144.168 219.217 145.949 217.239 147.73 215.853C149.511 214.468 152.017 211.895 152.676 210.18C153.336 208.466 153.203 207.74 152.676 207.608Z" fill="#B5C4E2"/>
<path d="M152.676 207.608L152.707 207.484C152.639 207.468 152.572 207.459 152.507 207.46C152.374 207.46 152.251 207.492 152.135 207.538C151.961 207.608 151.802 207.708 151.639 207.799C151.476 207.89 151.311 207.972 151.132 208.011C151.089 208.021 151.024 208.039 150.936 208.065C150.275 208.259 148.28 208.916 146.086 209.601C143.891 210.287 141.497 211.001 140.053 211.308L140.08 211.433L140.173 211.346L134.611 205.384L129.001 210.584L134.691 215.142L134.771 215.043L134.66 215.104C135.24 216.172 136.467 218.217 138.081 219.642C139.128 220.567 140.094 220.894 140.93 220.894C141.916 220.894 142.707 220.446 143.253 220.046C143.761 219.673 144.453 218.996 145.244 218.238C146.035 217.481 146.923 216.642 147.807 215.955C148.704 215.257 149.78 214.264 150.717 213.227C151.654 212.189 152.452 211.113 152.794 210.227C153.109 209.409 153.249 208.809 153.249 208.371C153.249 208.127 153.204 207.93 153.111 207.778C153.019 207.625 152.872 207.526 152.707 207.485L152.676 207.608L152.646 207.731C152.758 207.76 152.835 207.814 152.895 207.909C152.955 208.006 152.996 208.155 152.996 208.369C152.997 208.752 152.867 209.331 152.558 210.133C152.239 210.962 151.455 212.03 150.529 213.053C149.602 214.078 148.534 215.063 147.652 215.751C146.754 216.448 145.862 217.293 145.069 218.051C144.278 218.81 143.584 219.486 143.103 219.838C142.579 220.223 141.837 220.638 140.93 220.637C140.161 220.635 139.263 220.343 138.249 219.449C136.676 218.061 135.454 216.036 134.882 214.981L134.87 214.958L129.389 210.567L134.597 205.741L140.034 211.572L140.104 211.556C141.665 211.224 144.286 210.432 146.596 209.707C147.751 209.344 148.828 208.998 149.651 208.734C150.064 208.602 150.413 208.491 150.678 208.408C150.81 208.368 150.921 208.333 151.007 208.308C151.094 208.282 151.156 208.264 151.187 208.258C151.477 208.193 151.714 208.047 151.926 207.926C152.032 207.865 152.133 207.81 152.229 207.772C152.326 207.734 152.416 207.712 152.507 207.712C152.551 207.712 152.597 207.717 152.646 207.73L152.676 207.608Z" fill="#3D5C9B"/>
<path d="M99.855 208.828C99.855 208.828 98.7309 213.07 98.0575 214.19C97.3828 215.31 94.7618 218.191 95.2111 219.872C95.6605 221.552 97.5407 222.223 100.537 222.943C103.534 223.664 103.974 225.389 105.847 226.109C107.72 226.83 109.873 227.136 110.398 226.735C110.922 226.336 111.717 226.669 112.674 225.614C113.676 224.508 111.552 223.636 110.431 222.678C109.705 222.06 107.797 220.191 105.624 218.27C103.451 216.349 105.715 211.234 105.715 211.234L99.855 208.828Z" fill="#B5C4E2"/>
<path d="M99.855 208.828L99.7315 208.795C99.7315 208.795 99.7136 208.861 99.6818 208.979C99.5698 209.391 99.2808 210.439 98.946 211.505C98.7793 212.039 98.5998 212.576 98.4279 213.039C98.2561 213.503 98.0868 213.894 97.948 214.124C97.7978 214.373 97.5407 214.725 97.239 215.133C96.7871 215.747 96.2397 216.493 95.8018 217.249C95.3651 218.007 95.0329 218.774 95.0316 219.457C95.0316 219.611 95.0494 219.761 95.0876 219.905C95.2047 220.344 95.4186 220.722 95.7178 221.045C96.1671 221.532 96.8036 221.899 97.6069 222.216C98.4101 222.532 99.3814 222.796 100.507 223.067C101.983 223.423 102.817 224.018 103.53 224.622C103.886 224.925 104.211 225.232 104.569 225.511C104.927 225.79 105.317 226.04 105.8 226.226C107.121 226.734 108.571 227.037 109.528 227.038C109.736 227.038 109.92 227.024 110.08 226.993C110.237 226.961 110.371 226.914 110.474 226.835C110.586 226.75 110.715 226.701 110.87 226.662C111.103 226.602 111.391 226.567 111.715 226.444C112.04 226.321 112.396 226.107 112.767 225.698C112.964 225.482 113.062 225.254 113.061 225.028C113.061 224.776 112.943 224.546 112.769 224.335C112.508 224.018 112.113 223.726 111.698 223.437C111.283 223.149 110.847 222.866 110.512 222.579C110.155 222.274 109.495 221.651 108.656 220.867C107.817 220.083 106.795 219.134 105.708 218.172C105.375 217.878 105.152 217.504 105.009 217.076C104.867 216.65 104.808 216.17 104.808 215.674C104.808 214.642 105.063 213.54 105.319 212.701C105.447 212.281 105.574 211.926 105.671 211.676C105.72 211.551 105.759 211.453 105.787 211.386C105.801 211.353 105.813 211.327 105.819 211.309C105.827 211.293 105.83 211.284 105.83 211.284L105.884 211.164L99.7697 208.651L99.7327 208.791L99.855 208.828L99.8066 208.945L105.666 211.353L105.715 211.236L105.599 211.185C105.597 211.188 105.338 211.775 105.077 212.63C104.817 213.484 104.555 214.604 104.555 215.678C104.555 216.194 104.615 216.699 104.769 217.161C104.921 217.622 105.17 218.04 105.541 218.368C106.626 219.327 107.646 220.274 108.485 221.058C109.323 221.842 109.982 222.463 110.349 222.778C110.82 223.179 111.448 223.556 111.951 223.935C112.203 224.125 112.423 224.314 112.575 224.499C112.727 224.686 112.809 224.862 112.808 225.031C112.808 225.182 112.746 225.343 112.578 225.529C112.115 226.038 111.712 226.201 111.341 226.298C111.157 226.345 110.98 226.374 110.808 226.417C110.637 226.461 110.47 226.52 110.319 226.635C110.264 226.677 110.165 226.719 110.029 226.746C109.894 226.772 109.723 226.786 109.527 226.786C108.621 226.788 107.184 226.489 105.89 225.991C105.437 225.816 105.07 225.581 104.724 225.312C104.206 224.909 103.738 224.424 103.113 223.969C102.487 223.515 101.703 223.093 100.564 222.82C99.0683 222.461 97.8564 222.113 96.9742 221.655C96.5325 221.426 96.1748 221.17 95.9011 220.873C95.6274 220.577 95.4377 220.239 95.3295 219.84C95.2977 219.72 95.2824 219.593 95.2824 219.458C95.2824 219.059 95.4173 218.596 95.6363 218.114C95.9647 217.388 96.4765 216.619 96.9666 215.935C97.4567 215.252 97.9213 214.656 98.1619 214.256C98.3401 213.96 98.5361 213.482 98.7373 212.924C99.3407 211.25 99.9721 208.864 99.9733 208.861L99.855 208.828Z" fill="#3D5C9B"/>
<path d="M109.638 148.771L103.409 166.778L102.159 170.355C102.072 170.593 101.874 170.775 101.628 170.837L85.7273 174.994C85.4027 175.08 85.1023 174.947 84.9355 174.716C84.7853 174.527 84.7293 174.266 84.8171 174.003L85.6637 171.597L93.4123 148.873C93.5155 148.573 93.7841 148.367 94.101 148.359L107.628 147.813L108.887 147.766C109.424 147.743 109.812 148.265 109.638 148.771Z" fill="#6C8AC5"/>
<path d="M109.638 148.771L103.409 166.778L102.159 170.355C102.072 170.593 101.874 170.775 101.628 170.837L85.7273 174.994C85.4027 175.08 85.1023 174.947 84.9355 174.716C87.8239 172.333 95.7239 165.535 101.034 158.269C104.817 153.093 106.709 149.729 107.626 147.814L108.885 147.767C109.424 147.743 109.812 148.265 109.638 148.771Z" fill="#486DB7"/>
<path d="M106.416 159.207C106.408 159.195 106.397 159.185 106.389 159.172C106.576 158.982 106.822 158.656 106.724 158.318C106.573 157.792 105.796 157.46 104.701 157.488C103.607 157.517 103.034 157.886 103.263 158.113C103.492 158.339 104.102 158.623 104.78 158.529L104.934 158.715C104.724 158.733 104.501 158.766 104.265 158.824C103.202 159.084 102.719 159.566 102.99 159.74C103.263 159.913 103.918 160.062 104.561 159.826L104.713 159.945C104.55 159.965 104.38 159.993 104.204 160.036C103.141 160.296 102.658 160.778 102.929 160.951C103.202 161.125 103.857 161.274 104.5 161.038L104.855 161.318C104.249 161.51 103.577 161.795 103.696 162.016C103.869 162.338 104.858 162.412 104.858 162.412L104.438 163.723C104.438 163.723 105.749 163.104 106.193 162.437C106.45 162.053 106.373 161.648 106.166 161.388C106.314 161.174 106.538 160.763 106.354 160.421C106.314 160.348 106.258 160.284 106.193 160.226C106.335 160.032 106.615 159.578 106.416 159.207Z" fill="#B5C4E2"/>
<path d="M106.416 159.207L106.528 159.146C106.516 159.126 106.506 159.113 106.5 159.107L106.495 159.101L106.459 159.126L106.496 159.103L106.495 159.101L106.459 159.126L106.496 159.103L106.388 159.171L106.478 159.26C106.562 159.174 106.658 159.064 106.735 158.931C106.812 158.799 106.872 158.645 106.872 158.474C106.872 158.411 106.863 158.346 106.845 158.281C106.802 158.131 106.716 157.997 106.599 157.882C106.422 157.71 106.176 157.581 105.879 157.493C105.579 157.405 105.227 157.358 104.832 157.358C104.788 157.358 104.743 157.358 104.699 157.359C104.22 157.372 103.835 157.447 103.562 157.553C103.424 157.606 103.315 157.666 103.232 157.736C103.191 157.772 103.156 157.81 103.13 157.853C103.105 157.896 103.087 157.949 103.087 158.002C103.086 158.077 103.123 158.15 103.175 158.201C103.292 158.315 103.474 158.43 103.704 158.52C103.933 158.609 104.211 158.673 104.513 158.673C104.607 158.673 104.702 158.666 104.799 158.654L104.781 158.528L104.683 158.609L104.837 158.795L104.935 158.714L104.925 158.586C104.709 158.604 104.48 158.638 104.235 158.698C103.791 158.806 103.442 158.954 103.198 159.107C103.075 159.183 102.979 159.262 102.909 159.344C102.873 159.384 102.845 159.426 102.823 159.471C102.803 159.516 102.789 159.563 102.789 159.614C102.789 159.659 102.802 159.707 102.826 159.747C102.85 159.788 102.885 159.82 102.923 159.845C103.023 159.909 103.158 159.965 103.317 160.006C103.476 160.046 103.662 160.073 103.861 160.073C104.095 160.073 104.351 160.036 104.604 159.943L104.561 159.824L104.482 159.924L104.634 160.043L104.713 159.942L104.697 159.816C104.531 159.836 104.357 159.864 104.173 159.91C103.729 160.018 103.38 160.166 103.135 160.319C103.013 160.395 102.916 160.474 102.846 160.556C102.811 160.596 102.783 160.638 102.761 160.683C102.741 160.727 102.727 160.775 102.727 160.825C102.727 160.871 102.739 160.918 102.764 160.959C102.788 161 102.822 161.032 102.86 161.057C102.961 161.121 103.096 161.177 103.255 161.218C103.414 161.258 103.6 161.285 103.799 161.285C104.033 161.285 104.289 161.248 104.542 161.155L104.499 161.035L104.42 161.136L104.775 161.416L104.854 161.316L104.816 161.195C104.532 161.285 104.235 161.394 104.001 161.512C103.884 161.571 103.782 161.631 103.703 161.699C103.664 161.733 103.629 161.767 103.601 161.809C103.575 161.851 103.553 161.902 103.553 161.96C103.553 161.998 103.563 162.039 103.582 162.073C103.615 162.134 103.664 162.184 103.717 162.223C103.811 162.293 103.927 162.343 104.048 162.384C104.412 162.503 104.841 162.534 104.846 162.535L104.855 162.408L104.734 162.368L104.224 163.958L104.489 163.834C104.491 163.832 104.822 163.676 105.213 163.434C105.602 163.191 106.052 162.867 106.296 162.503C106.423 162.312 106.481 162.111 106.479 161.922C106.479 161.685 106.394 161.47 106.263 161.305L106.164 161.384L106.268 161.457C106.325 161.374 106.394 161.262 106.449 161.134C106.504 161.005 106.547 160.857 106.547 160.702C106.547 160.589 106.523 160.469 106.463 160.357C106.413 160.267 106.347 160.193 106.276 160.129L106.19 160.223L106.294 160.298C106.351 160.221 106.427 160.105 106.492 159.966C106.556 159.827 106.609 159.664 106.609 159.49C106.609 159.376 106.585 159.257 106.525 159.145L106.416 159.207L106.304 159.267C106.342 159.339 106.357 159.412 106.357 159.491C106.357 159.611 106.318 159.742 106.263 159.861C106.208 159.978 106.14 160.082 106.09 160.15L106.021 160.242L106.106 160.32C106.165 160.372 106.211 160.424 106.24 160.48C106.278 160.552 106.294 160.626 106.294 160.705C106.294 160.813 106.262 160.929 106.216 161.035C106.17 161.142 106.11 161.242 106.059 161.314L106.006 161.392L106.064 161.466C106.162 161.588 106.226 161.75 106.226 161.923C106.226 162.063 106.187 162.212 106.085 162.363C105.885 162.666 105.455 162.987 105.079 163.219C104.891 163.336 104.715 163.433 104.588 163.5C104.524 163.533 104.472 163.56 104.436 163.578C104.418 163.587 104.404 163.593 104.396 163.598L104.382 163.604L104.436 163.719L104.557 163.758L105.027 162.293L104.867 162.282L104.856 162.28C104.805 162.277 104.562 162.252 104.319 162.195C104.198 162.167 104.076 162.129 103.982 162.084C103.886 162.041 103.824 161.986 103.806 161.952L103.791 161.96H103.807L103.806 161.952L103.791 161.96H103.807H103.795L103.807 161.962V161.96H103.795L103.807 161.962L103.81 161.957C103.816 161.941 103.855 161.897 103.919 161.853C104.016 161.784 104.168 161.709 104.34 161.636C104.511 161.565 104.705 161.496 104.893 161.436L105.122 161.364L104.522 160.892L104.455 160.916C104.233 160.997 104.007 161.029 103.799 161.029C103.622 161.029 103.457 161.006 103.319 160.971C103.18 160.935 103.067 160.887 102.997 160.842C102.985 160.834 102.983 160.829 102.981 160.829V160.825C102.981 160.822 102.983 160.81 102.991 160.792C103.007 160.761 103.044 160.711 103.105 160.657C103.289 160.493 103.678 160.293 104.233 160.158C104.404 160.116 104.567 160.09 104.728 160.069L105.031 160.031L104.584 159.68L104.518 159.704C104.295 159.785 104.07 159.817 103.861 159.817C103.684 159.817 103.52 159.794 103.381 159.759C103.242 159.723 103.129 159.675 103.059 159.63C103.047 159.622 103.045 159.617 103.044 159.617V159.614C103.044 159.61 103.045 159.598 103.054 159.58C103.069 159.549 103.106 159.499 103.167 159.446C103.352 159.281 103.74 159.081 104.295 158.947C104.525 158.891 104.742 158.857 104.945 158.841L105.189 158.82L104.833 158.392L104.763 158.402C104.678 158.413 104.594 158.418 104.511 158.418C104.247 158.418 103.998 158.362 103.796 158.283C103.594 158.204 103.434 158.101 103.353 158.02C103.338 158.003 103.342 158.003 103.34 158.003C103.34 158.003 103.34 157.997 103.348 157.984C103.361 157.961 103.401 157.919 103.469 157.878C103.571 157.816 103.731 157.752 103.94 157.704C104.149 157.656 104.406 157.621 104.705 157.614C104.748 157.612 104.79 157.612 104.832 157.612C105.331 157.612 105.751 157.693 106.056 157.828C106.208 157.895 106.331 157.975 106.421 158.064C106.511 158.153 106.571 158.249 106.6 158.352C106.612 158.394 106.618 158.435 106.618 158.476C106.618 158.585 106.579 158.698 106.516 158.804C106.454 158.91 106.371 159.008 106.297 159.083L106.226 159.154L106.28 159.239C106.291 159.257 106.3 159.266 106.304 159.271L106.306 159.274L106.347 159.243L106.303 159.267L106.306 159.274L106.347 159.243L106.303 159.267L106.416 159.207Z" fill="#3D5C9B"/>
<path d="M101.78 160.841C101.335 162.311 100.132 163.249 99.0925 162.935C98.0524 162.62 97.5713 161.174 98.0155 159.703C98.4598 158.232 99.6628 157.294 100.703 157.609C101.743 157.923 102.224 159.37 101.78 160.841Z" fill="#486DB7"/>
<path d="M148.428 219.966C145.183 233.983 130.628 243.702 104.659 245.467C52.2236 249.029 23.3345 245.863 13.045 220.931C10.718 215.295 9.81542 208.014 9.94272 200.059C13.9004 201.642 21.2685 205.971 29.2705 217.566C41.1423 234.781 65.0846 243.488 93.975 239.728C122.088 236.073 139.152 232.036 148.428 219.966Z" fill="#65BAA6"/>
</svg>
