<svg width="191" height="33" viewBox="0 0 191 33" fill="none" xmlns="http://www.w3.org/2000/svg">
<g clip-path="url(#clip0_9_2036)">
<path d="M81.2953 16.4595C81.2953 11.3175 85.1405 7.36914 90.2977 7.36914C93.6453 7.36914 96.5405 9.11376 97.8976 11.8225L94.731 13.7049C93.9619 12.098 92.3334 11.042 90.2524 11.042C87.2667 11.042 84.9596 13.3376 84.9596 16.4595C84.9596 19.5815 87.2215 21.877 90.2524 21.877C92.2881 21.877 93.9619 20.8211 94.7762 19.2142L97.9429 21.0506C96.4953 23.7594 93.6 25.5499 90.2977 25.5499C85.1405 25.5499 81.2953 21.5557 81.2953 16.4595Z" fill="white"/>
<path d="M98.1691 16.4595C98.1691 11.3175 102.195 7.36914 107.171 7.36914C112.193 7.36914 116.174 11.3175 116.174 16.4595C116.174 21.5557 112.193 25.5499 107.171 25.5499C102.195 25.5499 98.1691 21.5557 98.1691 16.4595ZM112.464 16.4595C112.464 13.2917 110.157 10.9961 107.171 10.9961C104.186 10.9961 101.879 13.2917 101.879 16.4595C101.879 19.6274 104.186 21.9229 107.171 21.9229C110.157 21.9229 112.464 19.5815 112.464 16.4595Z" fill="white"/>
<path d="M133.591 14.4852V25.0907H129.881V14.8525C129.881 12.2356 128.388 10.8583 126.081 10.8583C123.683 10.8583 121.738 12.3274 121.738 15.8167V25.0907H118.074V7.78223C121.014 7.78223 121.738 8.65454 121.738 9.98596C122.869 8.19543 124.724 7.32312 127.031 7.32312C130.831 7.36903 133.591 9.98596 133.591 14.4852Z" fill="white"/>
<path d="M141.1 11.4093V19.7192C141.1 21.9229 142.548 21.877 145.307 21.7393V25.0908C139.652 25.7795 137.391 24.1726 137.391 19.7192V11.4093H134.631V7.78233H137.391V6.8182C137.391 4.47673 138.25 3.87989 139.969 3.28305L141.055 2.96167V7.78233H145.262V11.3634H141.1V11.4093Z" fill="white"/>
<path d="M146.438 2.8239C146.438 1.49248 147.479 0.436523 148.791 0.436523C150.102 0.436523 151.143 1.49248 151.143 2.8239C151.143 4.10941 150.102 5.21127 148.791 5.21127C147.524 5.21127 146.438 4.10941 146.438 2.8239ZM146.981 7.78229H150.645V25.0448H146.981V7.78229Z" fill="white"/>
<path d="M169.51 7.78224C168.424 7.78224 167.791 8.05771 167.429 8.47091C167.067 8.93002 166.976 9.57277 166.976 10.3074C165.664 8.425 163.674 7.27722 161.05 7.27722C156.255 7.27722 152.455 11.2715 152.455 16.184C152.455 21.1424 156.255 25.0907 161.05 25.0907C163.674 25.0907 165.664 23.9429 166.976 22.0606V24.3102C166.976 27.3403 165.076 29.085 161.91 29.085C158.924 29.085 157.702 27.8913 156.933 26.4221L154.264 29.1309C155.802 31.3346 158.471 32.4824 161.819 32.4824C166.298 32.4824 170.595 29.9114 170.595 24.3102V7.78224H169.51ZM161.593 21.6933C158.471 21.6933 156.164 19.3977 156.164 16.2758C156.164 13.1538 158.471 10.8583 161.593 10.8583C164.714 10.8583 167.021 13.1538 167.021 16.2758C167.021 19.3977 164.669 21.6933 161.593 21.6933Z" fill="white"/>
<path d="M172.495 16.4595C172.495 11.3175 176.522 7.36914 181.498 7.36914C186.519 7.36914 190.5 11.3175 190.5 16.4595C190.5 21.5557 186.519 25.5499 181.498 25.5499C176.522 25.5499 172.495 21.5557 172.495 16.4595ZM186.836 16.4595C186.836 13.2917 184.529 10.9961 181.543 10.9961C178.557 10.9961 176.25 13.2917 176.25 16.4595C176.25 19.6274 178.557 21.9229 181.543 21.9229C184.483 21.9229 186.836 19.5815 186.836 16.4595Z" fill="white"/>
<path d="M78.8072 14.8067V25.504H75.1429V15.0363C75.1429 12.603 73.831 11.2716 71.8405 11.2716C69.6691 11.2716 68.131 12.6948 68.131 15.8168V25.504H64.4667V15.0363C64.4667 12.603 63.2905 11.2716 61.2548 11.2716C59.1739 11.2716 57.4548 12.6948 57.4548 15.8168V25.504H53.7905V8.24146C56.3239 8.24146 57.4548 8.79239 57.4548 10.3075C58.5405 8.60875 60.2143 7.78235 62.3405 7.78235C64.5572 7.78235 66.1858 8.79239 67.181 10.4911C68.312 8.70057 70.1215 7.78235 72.3834 7.78235C76.2286 7.78235 78.8072 10.4911 78.8072 14.8067Z" fill="white"/>
<path d="M47.9095 22.8871C47.9095 23.8512 47.6833 24.5858 47.2762 25.0908C46.7333 25.7795 45.8738 25.9631 45.4214 25.9631C45.4214 25.9631 45.3762 25.9631 45.331 25.9631H45.2857H45.2405C44.0643 25.9631 43.2952 24.9531 43.25 24.8612L43.2048 24.8153C40.0381 20.9588 32.1667 13.108 28.4572 9.43512C28.5024 9.38921 28.5476 9.3892 28.5929 9.34329C28.7738 9.20556 28.9095 9.06783 29.0905 8.93009C29.2262 8.83827 29.3167 8.74645 29.4524 8.60872C29.5881 8.51689 29.6786 8.42507 29.7691 8.33325C29.8595 8.28734 29.9048 8.19552 29.9952 8.14961C31.3524 7.00183 32.6643 5.89997 33.5691 5.16539C33.6595 5.07357 33.7952 4.98174 33.8857 4.88992C33.9762 4.7981 34.1119 4.70628 34.2024 4.61446C34.5191 4.33899 34.7 4.20126 34.7 4.20126C34.7 4.20126 36.5548 2.54846 38.9072 3.87988C39.2238 4.06352 39.5405 4.3849 39.9024 4.84401C39.9476 4.88992 39.9929 4.93583 40.0381 5.02765L40.0833 5.07357C40.1738 5.16539 40.2643 5.30312 40.3548 5.44085C40.4452 5.57859 40.5357 5.71632 40.6262 5.85405C40.6714 5.94588 40.7167 5.99179 40.7619 6.08361C40.8072 6.12952 40.8524 6.17543 40.8524 6.26725C40.8976 6.35908 40.9881 6.49681 41.0333 6.58863C41.0786 6.68045 41.1238 6.77228 41.1691 6.8641C41.2143 6.91001 41.2143 6.95592 41.2595 7.00183C41.35 7.13956 41.3952 7.2773 41.4857 7.41503C41.4857 7.46094 41.531 7.46094 41.531 7.50685C41.7572 7.92005 42.0286 8.37916 42.3 8.88418C42.3452 8.97601 42.4357 9.11374 42.481 9.20556C42.5262 9.29738 42.5714 9.43512 42.6619 9.52694C42.7524 9.71058 42.8429 9.89423 42.9333 10.0779C42.9333 10.1238 42.9786 10.1697 42.9786 10.2156C43.0691 10.3533 43.1143 10.537 43.2048 10.7206C43.4762 11.2256 43.7024 11.7766 43.9286 12.3275C44.0191 12.5571 44.1548 12.7866 44.2452 13.0621C44.6072 13.8426 44.9238 14.669 45.2405 15.4495C45.4214 15.8627 45.6024 16.3218 45.7381 16.735C45.8286 16.9645 45.9191 17.1482 45.9643 17.3777C46.1452 17.8368 46.3262 18.2959 46.4619 18.7551C46.5524 18.9846 46.5976 19.1683 46.6881 19.3978C46.7786 19.6274 46.8238 19.811 46.9143 20.0406C47.0048 20.2242 47.05 20.4538 47.0952 20.6374C47.1405 20.8211 47.231 21.0506 47.2762 21.2343C47.3214 21.372 47.3667 21.5097 47.4119 21.6475C47.5476 22.0147 47.6381 22.4279 47.7286 22.7493C47.8191 22.6116 47.8643 22.7034 47.9095 22.8871Z" fill="white"/>
<path d="M47.0501 26.8363C46.6429 27.4332 46.3262 27.7087 46.3262 27.7087C46.3262 27.7087 44.9239 29.3155 42.481 29.3155C42.481 29.3155 40.8524 29.3614 39.5858 28.4891C39.1334 28.1678 37.7762 27.2955 35.8762 26.2854C34.8358 25.7345 33.5691 25.0917 32.2572 24.5408C32.212 24.5408 32.212 24.4949 32.1667 24.4949C30.8096 23.898 29.4072 23.3471 27.9596 22.9339C27.9596 22.9339 27.9143 22.9339 27.8691 22.888C26.0143 22.3371 24.1143 21.9698 22.3953 21.9698C15.4286 21.9698 3.21434 29.0401 3.21434 29.0401C3.21434 29.0401 2.85243 29.2696 2.30957 29.2696C1.76672 29.2696 0.771478 28.9942 0.50005 27.7546C0.364335 27.2036 1.08815 25.3213 2.98815 22.1993C2.98815 22.1993 2.98815 22.1534 3.03338 22.1534C4.02862 20.5006 5.34053 18.5264 7.01434 16.185C9.32148 12.9253 12.3072 9.06876 16.1524 4.52357C16.1524 4.52357 17.1024 3.37579 18.7762 3.37579C18.7762 3.37579 20.1334 3.28397 21.4001 4.33993C21.8524 4.70722 23.7524 6.54366 26.4667 9.16059C31.4881 14.0731 39.2691 21.9239 42.2548 25.6427C42.2548 25.6427 43.3858 27.2495 45.2405 27.2495H45.331C45.3762 27.2495 45.4667 27.2495 45.512 27.2495C45.7834 27.2036 46.4167 27.1577 47.0501 26.8363Z" fill="white"/>
<path opacity="0.2" d="M47.9095 22.8871C47.9095 23.8512 47.6833 24.5858 47.2762 25.0908C46.7333 25.7794 45.8738 25.9631 45.4214 25.9631C45.4214 25.9631 45.3762 25.9631 45.331 25.9631H45.2857H45.2405C44.0643 25.9631 43.2952 24.9531 43.25 24.8612L43.2048 24.8153C40.0381 20.9588 32.1667 13.108 28.4572 9.43512C28.5024 9.38921 28.5476 9.38921 28.5929 9.34329C28.7738 9.20556 28.9095 9.06783 29.0905 8.9301C29.2262 8.83827 29.3167 8.74645 29.4524 8.60872C29.5881 8.5169 29.6786 8.42507 29.7691 8.33325C32.2119 9.38921 37.2786 11.8225 46.1 17.24C46.281 17.6991 46.4619 18.1582 46.5976 18.6173C46.6881 18.8469 46.7333 19.0305 46.8238 19.2601C46.9143 19.4896 46.9595 19.6733 47.05 19.9028C47.1405 20.0865 47.1857 20.316 47.231 20.4997C47.2762 20.6833 47.3667 20.9129 47.4119 21.0965C47.4572 21.2343 47.5024 21.372 47.5476 21.5097C47.6833 21.877 47.7738 22.2902 47.8643 22.6116C47.8191 22.6116 47.8643 22.7034 47.9095 22.8871Z" fill="white"/>
<path opacity="0.2" d="M27.8691 22.8412C26.0143 22.2903 24.1143 21.923 22.3953 21.923C15.4286 21.9689 3.21434 29.0392 3.21434 29.0392C3.21434 29.0392 2.85243 29.2687 2.30957 29.2687C1.76672 29.2687 0.771478 28.9933 0.50005 27.7537C0.364335 27.2027 1.08815 25.3204 2.98815 22.1984C2.98815 22.1984 2.98814 22.1525 3.03338 22.1525C13.6191 18.4796 26.7381 22.4739 27.8691 22.8412Z" fill="white"/>
</g>
<defs>
<clipPath id="clip0_9_2036">
<rect width="190" height="32" fill="white" transform="translate(0.5 0.436523)"/>
</clipPath>
</defs>
</svg>
