<svg width="188" height="40" viewBox="0 0 188 40" fill="none" xmlns="http://www.w3.org/2000/svg">
<path fill-rule="evenodd" clip-rule="evenodd" d="M9.65903 12.28V14.7619H0.381752V1.92578H3.50809V12.28H9.65903Z" fill="#87A2B1"/>
<path fill-rule="evenodd" clip-rule="evenodd" d="M14.9261 12.8353C15.2191 12.8353 15.5006 12.8308 15.767 12.8174C16.035 12.8052 16.2493 12.7866 16.409 12.7617V10.6682C16.2885 10.6438 16.1087 10.6192 15.8684 10.5954C15.6287 10.5699 15.4061 10.5568 15.2073 10.5568C14.9261 10.5568 14.6627 10.5735 14.4145 10.6046C14.1689 10.6341 13.951 10.6937 13.763 10.7796C13.576 10.8651 13.4301 10.9835 13.3241 11.1324C13.2171 11.2803 13.1625 11.4644 13.1625 11.6866C13.1625 12.1188 13.3202 12.4196 13.6339 12.5848C13.9467 12.7531 14.378 12.8353 14.9261 12.8353ZM14.6862 4.75873C15.5678 4.75873 16.3023 4.85187 16.8893 5.03601C17.4777 5.22259 17.9488 5.48831 18.302 5.83287C18.6573 6.17803 18.9072 6.59959 19.0537 7.09298C19.2008 7.58728 19.2739 8.13698 19.2739 8.74025V14.4847C18.8466 14.5708 18.2517 14.6731 17.4915 14.7897C16.7297 14.906 15.8082 14.9659 14.7253 14.9659C14.0445 14.9659 13.4269 14.9108 12.8718 14.7994C12.3174 14.688 11.84 14.506 11.439 14.2519C11.0393 14.0011 10.7315 13.6696 10.5178 13.2617C10.3048 12.8539 10.1962 12.3538 10.1962 11.7618C10.1962 11.1929 10.3209 10.7111 10.5679 10.316C10.8151 9.92092 11.1456 9.60681 11.5601 9.37152C11.974 9.13746 12.4484 8.96701 12.9831 8.862C13.5174 8.75699 14.0718 8.70373 14.645 8.70373C15.0325 8.70373 15.3765 8.72138 15.6784 8.7509C15.9784 8.78256 16.221 8.82213 16.409 8.87174V8.61211C16.409 8.14307 16.2556 7.76686 15.9484 7.48136C15.6406 7.19859 15.1062 7.05676 14.3441 7.05676C13.8377 7.05676 13.3363 7.09024 12.8415 7.15872C12.3473 7.22568 11.921 7.32156 11.5601 7.44362L11.1796 5.22259C11.3527 5.17268 11.5694 5.12032 11.8301 5.06523C12.0909 5.00771 12.3743 4.96022 12.6821 4.91761C12.9896 4.87317 13.3139 4.83573 13.6534 4.80499C13.9944 4.77395 14.3378 4.75873 14.6862 4.75873Z" fill="#87A2B1"/>
<path fill-rule="evenodd" clip-rule="evenodd" d="M27.752 9.59327C27.752 8.70389 27.6286 8.07505 27.3817 7.70462C27.1347 7.33511 26.71 7.14914 26.1095 7.14914C25.9225 7.14914 25.728 7.15888 25.5284 7.17684C25.3283 7.1951 25.1347 7.21641 24.948 7.24228V14.7619H21.9619V5.35211C22.2158 5.29154 22.5121 5.22428 22.8528 5.15701C23.1936 5.09005 23.5544 5.02826 23.9356 4.97134C24.3172 4.91777 24.7057 4.87364 25.1074 4.84259C25.508 4.81155 25.9015 4.79663 26.2913 4.79663C27.0511 4.79663 27.6701 4.8852 28.1438 5.0657C28.6176 5.24315 29.0087 5.45804 29.3155 5.70488C29.7429 5.42121 30.2337 5.19749 30.7872 5.03648C31.3426 4.87699 31.8539 4.79663 32.3214 4.79663C33.1625 4.79663 33.8539 4.90468 34.3942 5.12049C34.9348 5.3375 35.367 5.64249 35.6871 6.03726C36.0071 6.43234 36.2267 6.90321 36.3478 7.44378C36.47 7.99013 36.5289 8.59492 36.5289 9.26028V14.7619H33.5435V9.59327C33.5435 8.70389 33.4197 8.07505 33.1724 7.70462C32.9255 7.33511 32.5008 7.14914 31.9003 7.14914C31.74 7.14914 31.5151 7.18567 31.2293 7.25963C30.9426 7.33511 30.7042 7.42612 30.5175 7.53752C30.6107 7.82272 30.6696 8.12223 30.6986 8.43573C30.7246 8.75106 30.7384 9.08679 30.7384 9.44565V14.7619H27.752V9.59327Z" fill="#4F667C"/>
<path fill-rule="evenodd" clip-rule="evenodd" d="M44.944 8.90791C44.9305 8.67323 44.887 8.44556 44.8136 8.22276C44.7395 7.99965 44.6276 7.80333 44.4728 7.62923C44.3188 7.45817 44.1249 7.3145 43.8924 7.20462C43.657 7.09322 43.367 7.03752 43.0203 7.03752C42.6865 7.03752 42.3997 7.09048 42.16 7.19489C41.9174 7.30142 41.7179 7.4393 41.5585 7.61188C41.3972 7.78507 41.2738 7.98504 41.1872 8.21302C41.1009 8.44221 41.0374 8.67323 40.9962 8.90791H44.944ZM37.931 9.9653C37.931 9.09996 38.0742 8.34389 38.3626 7.69588C38.649 7.04574 39.026 6.50821 39.4932 6.07478C39.961 5.64227 40.4983 5.31446 41.1064 5.09135C41.7145 4.86946 42.338 4.75897 42.9794 4.75897C44.4763 4.75897 45.6586 5.18144 46.5261 6.0276C47.3953 6.87377 47.8292 8.12048 47.8292 9.76015C47.8292 9.92116 47.8239 10.0983 47.8088 10.2892C47.7956 10.4791 47.7821 10.6504 47.7699 10.7981H40.9961C41.0636 11.3663 41.3503 11.8177 41.8587 12.1498C42.3653 12.4843 43.0462 12.6511 43.9022 12.6511C44.4497 12.6511 44.9866 12.6045 45.5147 12.5111C46.0425 12.4198 46.4731 12.3047 46.8073 12.1684L47.2079 14.4098C47.0469 14.485 46.8343 14.5571 46.5669 14.6326C46.2996 14.7062 46.0026 14.7711 45.6751 14.8265C45.3478 14.8825 44.9982 14.9284 44.6232 14.9662C44.2488 15.0036 43.8755 15.021 43.5012 15.021C42.5523 15.021 41.7276 14.8922 41.0274 14.6326C40.3268 14.3726 39.744 14.019 39.2848 13.567C38.8222 13.1171 38.4828 12.5826 38.2619 11.966C38.0416 11.3481 37.931 10.6815 37.931 9.9653Z" fill="#4F667C"/>
<path fill-rule="evenodd" clip-rule="evenodd" d="M49.3309 5.35211C49.8396 5.21454 50.4941 5.09005 51.2951 4.97134C52.0961 4.85568 52.9386 4.79663 53.8199 4.79663C54.7151 4.79663 55.4598 4.90468 56.0544 5.12049C56.6487 5.3375 57.1201 5.64249 57.4668 6.03726C57.8138 6.43234 58.062 6.90321 58.2072 7.44408C58.356 7.99013 58.4288 8.59492 58.4288 9.26028V14.7622H55.443V9.59327C55.443 8.70389 55.316 8.07505 55.0611 7.70462C54.8083 7.33511 54.3335 7.14914 53.6399 7.14914C53.4262 7.14914 53.1987 7.15888 52.9584 7.17684C52.7187 7.1951 52.5034 7.21641 52.3174 7.24228V14.7622H49.3309V5.35211Z" fill="#4F667C"/>
<path fill-rule="evenodd" clip-rule="evenodd" d="M60.2316 2.59191L63.217 2.14752V5.01869H66.8033V7.31459H63.217V10.7437C63.217 11.3235 63.327 11.7865 63.5485 12.1313C63.7688 12.4783 64.2132 12.6512 64.8806 12.6512C65.2022 12.6512 65.5315 12.6229 65.8722 12.5669C66.213 12.5112 66.5241 12.4348 66.8033 12.334L67.2253 14.485C66.8635 14.6208 66.4645 14.738 66.022 14.8369C65.5822 14.9349 65.0403 14.9839 64.3999 14.9839C63.5851 14.9839 62.9092 14.8826 62.3748 14.6783C61.8405 14.4744 61.4142 14.1913 61.0938 13.8279C60.7741 13.462 60.5506 13.0207 60.4229 12.5033C60.2954 11.9834 60.2316 11.4096 60.2316 10.7799V2.59191Z" fill="#4F667C"/>
<path fill-rule="evenodd" clip-rule="evenodd" d="M74.5365 8.90791C74.524 8.67323 74.4798 8.44556 74.4071 8.22276C74.3343 7.99965 74.2211 7.80333 74.0676 7.62923C73.9132 7.45817 73.719 7.3145 73.4869 7.20462C73.2508 7.09322 72.9611 7.03752 72.6134 7.03752C72.2809 7.03752 71.9938 7.09048 71.7525 7.19489C71.5122 7.30142 71.311 7.4393 71.1517 7.61188C70.9904 7.78507 70.8676 7.98504 70.781 8.21302C70.6941 8.44221 70.6302 8.67323 70.5913 8.90791H74.5365ZM67.5247 9.9653C67.5247 9.09996 67.6686 8.34389 67.956 7.69588C68.2418 7.04574 68.6204 6.50821 69.0876 6.07478C69.5557 5.64227 70.094 5.31446 70.6994 5.09135C71.3095 4.86946 71.9337 4.75897 72.5754 4.75897C74.0684 4.75897 75.252 5.18144 76.1202 6.0276C76.99 6.87377 77.4232 8.12048 77.4232 9.76015C77.4232 9.92116 77.4163 10.0983 77.4022 10.2892C77.3897 10.4791 77.3765 10.6504 77.3637 10.7981H70.5915C70.657 11.3663 70.9441 11.8177 71.453 12.1498C71.9604 12.4843 72.6412 12.6511 73.4975 12.6511C74.0427 12.6511 74.5827 12.6045 75.1094 12.5111C75.6359 12.4198 76.0678 12.3047 76.4003 12.1684L76.802 14.4098C76.6423 14.485 76.4286 14.5571 76.161 14.6326C75.894 14.7062 75.597 14.7711 75.2691 14.8265C74.9425 14.8825 74.5916 14.9284 74.2166 14.9662C73.8439 15.0036 73.4682 15.021 73.0949 15.021C72.1464 15.021 71.3217 14.8922 70.6214 14.6326C69.9195 14.3726 69.3394 14.019 68.8769 13.567C68.4176 13.1171 68.0768 12.5826 67.8553 11.966C67.6357 11.3481 67.5247 10.6815 67.5247 9.9653Z" fill="#4F667C"/>
<path fill-rule="evenodd" clip-rule="evenodd" d="M86.0727 8.90791C86.0602 8.67323 86.016 8.44556 85.9433 8.22276C85.8699 7.99965 85.7563 7.80333 85.6025 7.62923C85.4491 7.45817 85.2552 7.3145 85.0211 7.20462C84.787 7.09322 84.498 7.03752 84.1506 7.03752C83.8165 7.03752 83.5281 7.09048 83.2887 7.19489C83.0477 7.30142 82.8472 7.4393 82.6879 7.61188C82.5282 7.78507 82.4031 7.98504 82.3152 8.21302C82.2296 8.44221 82.1664 8.67323 82.1265 8.90791H86.0727ZM79.0609 9.9653C79.0609 9.09996 79.2034 8.34389 79.4918 7.69588C79.7779 7.04574 80.1559 6.50821 80.623 6.07478C81.0902 5.64227 81.6282 5.31446 82.2362 5.09135C82.8437 4.86946 83.4699 4.75897 84.1109 4.75897C85.6055 4.75897 86.7891 5.18144 87.6563 6.0276C88.5251 6.87377 88.9577 8.12048 88.9577 9.76015C88.9577 9.92116 88.9515 10.0983 88.9399 10.2892C88.9261 10.4791 88.9116 10.6504 88.8991 10.7981H82.1266C82.1931 11.3663 82.4786 11.8177 82.9882 12.1498C83.4955 12.4843 84.177 12.6511 85.032 12.6511C85.5779 12.6511 86.1172 12.6045 86.6452 12.5111C87.172 12.4198 87.603 12.3047 87.9371 12.1684L88.3381 14.4098C88.1778 14.485 87.9631 14.5571 87.6951 14.6326C87.4291 14.7062 87.1305 14.7711 86.8043 14.8265C86.4773 14.8825 86.127 14.9284 85.7537 14.9662C85.3794 15.0036 85.0044 15.021 84.631 15.021C83.6825 15.021 82.8582 14.8922 82.1566 14.6326C81.4557 14.3726 80.8736 14.019 80.413 13.567C79.9517 13.1171 79.6123 12.5826 79.3914 11.966C79.1698 11.3481 79.0609 10.6815 79.0609 9.9653Z" fill="#87A2B1"/>
<path fill-rule="evenodd" clip-rule="evenodd" d="M93.4874 12.7797C94.0346 12.7797 94.4227 12.7304 94.6499 12.6309C94.8761 12.5326 94.9893 12.3405 94.9893 12.0574C94.9893 11.8349 94.8431 11.6405 94.5488 11.4752C94.2551 11.3078 93.8074 11.1191 93.2066 10.9093C92.7381 10.7486 92.3153 10.5815 91.9341 10.4096C91.5535 10.2367 91.2302 10.0288 90.9616 9.78803C90.6949 9.54727 90.4891 9.26024 90.341 8.92543C90.1938 8.59458 90.1211 8.19158 90.1211 7.72315C90.1211 6.80942 90.4891 6.08653 91.2233 5.5554C91.9581 5.02396 92.9669 4.75885 94.2492 4.75885C94.8902 4.75885 95.5042 4.8112 96.0916 4.91743C96.6799 5.02153 97.1471 5.13506 97.4961 5.26015L96.9732 7.40752C96.6262 7.29612 96.2493 7.19872 95.8414 7.11288C95.4334 7.02583 94.9781 6.98291 94.4682 6.98291C93.5345 6.98291 93.068 7.22185 93.068 7.70428C93.068 7.81568 93.0867 7.914 93.1246 7.99952C93.1664 8.08658 93.2474 8.16997 93.3666 8.25124C93.4874 8.33251 93.6497 8.41743 93.8578 8.51118C94.0645 8.60432 94.3289 8.70659 94.6499 8.8192C95.3044 9.04322 95.8443 9.26511 96.2723 9.48244C96.7003 9.70098 97.0374 9.93565 97.2847 10.188C97.5313 10.4412 97.7051 10.7206 97.8062 11.028C97.905 11.337 97.9553 11.6946 97.9553 12.0998C97.9553 13.0619 97.5632 13.7896 96.7833 14.283C96.0014 14.7749 94.8958 15.0208 93.467 15.0208C92.5326 15.0208 91.754 14.9481 91.1338 14.7996C90.5109 14.6504 90.0822 14.5274 89.8409 14.4288L90.341 12.1877C90.8496 12.3716 91.3691 12.5177 91.9032 12.6224C92.4385 12.7274 92.9669 12.7797 93.4874 12.7797Z" fill="#87A2B1"/>
<path fill-rule="evenodd" clip-rule="evenodd" d="M11.0263 28.2305C11.0263 26.5753 10.7959 25.4038 10.336 24.7144C9.87504 24.024 9.08753 23.6801 7.96849 23.6801C7.61984 23.6801 7.26098 23.6977 6.88764 23.7324C6.51496 23.7671 6.15379 23.8061 5.8058 23.853V37.8487H0.250107V20.3359C0.722217 20.2218 1.27532 20.101 1.91007 19.9749C2.54218 19.848 3.21413 19.733 3.92296 19.6292C4.63145 19.5257 5.35871 19.4465 6.10441 19.3878C6.84912 19.3315 7.5833 19.3014 8.3043 19.3014C9.72063 19.3014 10.8716 19.4685 11.7533 19.8024C12.6359 20.1347 13.3625 20.5313 13.9344 20.9916C14.7301 20.4626 15.6437 20.0486 16.6752 19.7503C17.707 19.452 18.6572 19.3014 19.5283 19.3014C21.0951 19.3014 22.381 19.5029 23.3871 19.9062C24.3939 20.3079 25.1959 20.8765 25.7935 21.6122C26.3897 22.3472 26.7989 23.2208 27.0221 24.2307C27.247 25.2437 27.3583 26.3699 27.3583 27.6111V37.8487H21.8026V28.2305C21.8026 26.5753 21.5725 25.4038 21.1125 24.7144C20.6529 24.024 19.8641 23.6801 18.7457 23.6801C18.4478 23.6801 18.03 23.7486 17.4953 23.8868C16.9613 24.024 16.5198 24.1972 16.1728 24.4039C16.346 24.9332 16.4573 25.4896 16.5076 26.0758C16.558 26.6627 16.582 27.2875 16.582 27.9553V37.8487H11.0263V28.2305Z" fill="#4F667C"/>
<path fill-rule="evenodd" clip-rule="evenodd" d="M38.3972 34.2632C38.9431 34.2632 39.4646 34.2519 39.962 34.2291C40.4601 34.2063 40.8569 34.1713 41.1555 34.1247V30.2308C40.9309 30.1846 40.5964 30.1386 40.1487 30.0917C39.7019 30.0467 39.2914 30.023 38.9184 30.023C38.3972 30.023 37.9047 30.0519 37.4444 30.1091C36.9855 30.1666 36.5812 30.2765 36.2335 30.4369C35.8846 30.5976 35.6126 30.8155 35.4124 31.0919C35.2146 31.368 35.1145 31.7125 35.1145 32.1256C35.1145 32.9303 35.4068 33.4877 35.9912 33.7978C36.5753 34.1083 37.3763 34.2632 38.3972 34.2632ZM37.9491 19.2321C39.5896 19.2321 40.9549 19.4052 42.0506 19.7501C43.1433 20.0943 44.0203 20.5899 44.6795 21.2321C45.3366 21.8768 45.8038 22.6578 46.0774 23.5776C46.3519 24.4959 46.4886 25.5192 46.4886 26.6445V37.3314C45.6922 37.4927 44.5863 37.6811 43.1693 37.8994C41.7526 38.1191 40.0364 38.229 38.0238 38.229C36.7556 38.229 35.6056 38.1246 34.5745 37.9173C33.5417 37.7107 32.6548 37.3722 31.9088 36.9013C31.1621 36.4305 30.5896 35.815 30.1928 35.0568C29.7948 34.2977 29.5956 33.3669 29.5956 32.2636C29.5956 31.2068 29.8254 30.3119 30.286 29.5753C30.7453 28.839 31.3613 28.2534 32.1323 27.8176C32.9024 27.3805 33.7844 27.0648 34.7799 26.8694C35.7732 26.6746 36.805 26.5751 37.874 26.5751C38.5947 26.5751 39.2357 26.6052 39.7941 26.6625C40.3534 26.7203 40.8064 26.7946 41.1554 26.8868V26.4046C41.1554 25.5305 40.869 24.8301 40.2981 24.3005C39.7259 23.7715 38.7317 23.5079 37.3137 23.5079C36.3708 23.5079 35.4364 23.5709 34.5176 23.6978C33.5977 23.8239 32.8036 24.0025 32.1323 24.2308L31.4228 20.0943C31.7458 20.0027 32.1498 19.9062 32.6357 19.8021C33.12 19.6977 33.6481 19.6064 34.2199 19.5258C34.7918 19.4463 35.394 19.3766 36.0277 19.3191C36.6631 19.2616 37.3022 19.2321 37.9491 19.2321Z" fill="#4F667C"/>
<path fill-rule="evenodd" clip-rule="evenodd" d="M61.851 24.266C61.3529 24.1515 60.7685 24.031 60.0975 23.9047C59.4256 23.778 58.7056 23.715 57.9349 23.715C57.5859 23.715 57.1704 23.7437 56.6858 23.8009C56.2005 23.8587 55.8334 23.9208 55.5862 23.9896V37.8487H50.0291V20.6816C51.0237 20.3593 52.1981 20.0552 53.5532 19.7688C54.9086 19.4806 56.4188 19.3366 58.0843 19.3366C58.3823 19.3366 58.7428 19.3537 59.1648 19.388C59.5872 19.4224 60.0103 19.4684 60.433 19.5259C60.8548 19.5835 61.2772 19.6538 61.7015 19.7329C62.1239 19.8123 62.4834 19.9113 62.7821 20.0257L61.851 24.266Z" fill="#4F667C"/>
<path fill-rule="evenodd" clip-rule="evenodd" d="M71.3955 34.2632C71.9427 34.2632 72.4642 34.2519 72.962 34.2291C73.4588 34.2063 73.8558 34.1713 74.1554 34.1247V30.2308C73.9322 30.1846 73.596 30.1386 73.1483 30.0917C72.7015 30.0467 72.292 30.023 71.9176 30.023C71.3955 30.023 70.9043 30.0519 70.444 30.1091C69.9841 30.1666 69.5808 30.2765 69.2331 30.4369C68.8848 30.5976 68.6109 30.8155 68.4127 31.0919C68.2148 31.368 68.1148 31.7125 68.1148 32.1256C68.1148 32.9303 68.4068 33.4877 68.9912 33.7978C69.5752 34.1083 70.3769 34.2632 71.3955 34.2632ZM70.9477 19.2321C72.5896 19.2321 73.9552 19.4052 75.0508 19.7501C76.1429 20.0943 77.0206 20.5899 77.6787 21.2321C78.3365 21.8768 78.8047 22.6578 79.0776 23.5776C79.3509 24.4959 79.4875 25.5192 79.4875 26.6445V37.3314C78.6911 37.4927 77.5866 37.6811 76.1679 37.8994C74.7522 38.1191 73.0366 38.229 71.0224 38.229C69.7562 38.229 68.6053 38.1246 67.5741 37.9173C66.5417 37.7107 65.6537 37.3722 64.9074 36.9013C64.162 36.4305 63.5902 35.815 63.1928 35.0568C62.7944 34.2977 62.5956 33.3669 62.5956 32.2636C62.5956 31.2068 62.825 30.3119 63.2859 29.5753C63.7449 28.839 64.3612 28.2534 65.1309 27.8176C65.9017 27.3805 66.7843 27.0648 67.7782 26.8694C68.7725 26.6746 69.805 26.5751 70.8736 26.5751C71.595 26.5751 72.235 26.6052 72.7937 26.6625C73.354 26.7203 73.806 26.7946 74.1554 26.8868V26.4046C74.1554 25.5305 73.8693 24.8301 73.2974 24.3005C72.7262 23.7715 71.7316 23.5079 70.3146 23.5079C69.3697 23.5079 68.4367 23.5709 67.5175 23.6978C66.5986 23.8239 65.8029 24.0025 65.1309 24.2308L64.4228 20.0943C64.7461 20.0027 65.15 19.9062 65.6356 19.8021C66.1196 19.6977 66.6483 19.6064 67.2195 19.5258C67.7921 19.4463 68.3939 19.3766 69.028 19.3191C69.6621 19.2616 70.3024 19.2321 70.9477 19.2321Z" fill="#4F667C"/>
<path fill-rule="evenodd" clip-rule="evenodd" d="M87.9061 37.8487C86.633 35.5512 85.3421 32.8618 84.0318 29.7812C82.7215 26.7019 81.4803 23.347 80.3082 19.7159H86.1997C86.449 20.6128 86.742 21.5832 87.0798 22.6281C87.4159 23.6752 87.7662 24.7316 88.1277 25.7994C88.4895 26.8696 88.8523 27.9096 89.2148 28.9211C89.5766 29.9325 89.9332 30.8505 90.2831 31.6784C90.6068 30.8505 90.9561 29.9325 91.3301 28.9211C91.7044 27.9096 92.0715 26.8696 92.434 25.7994C92.7958 24.7316 93.1461 23.6752 93.4825 22.6281C93.8197 21.5832 94.1124 20.6128 94.3622 19.7159H100.108C98.9362 23.347 97.6963 26.7019 96.3873 29.7812C95.0786 32.8618 93.7877 35.5512 92.5163 37.8487H87.9061Z" fill="#4F667C"/>
<path fill-rule="evenodd" clip-rule="evenodd" d="M101.561 37.8488H107.119V19.716H101.561V37.8488ZM107.64 14.4754C107.64 15.4189 107.31 16.1604 106.652 16.6991C105.994 17.2391 105.217 17.5091 104.322 17.5091C103.427 17.5091 102.65 17.2391 101.992 16.6991C101.333 16.1604 101.003 15.4189 101.003 14.4754C101.003 13.5333 101.333 12.7909 101.992 12.2519C102.65 11.7128 103.427 11.4413 104.322 11.4413C105.217 11.4413 105.994 11.7128 106.652 12.2519C107.31 12.7909 107.64 13.5333 107.64 14.4754Z" fill="#4F667C"/>
<path fill-rule="evenodd" clip-rule="evenodd" d="M118.676 38.1937C117.061 38.1708 115.749 38.0092 114.743 37.7106C113.737 37.4123 112.94 36.9929 112.357 36.4514C111.773 35.913 111.374 35.2577 111.163 34.4876C110.952 33.7175 110.846 32.8498 110.846 31.8846V11.924L116.403 11.0979V30.8503C116.403 31.3099 116.439 31.7239 116.514 32.0913C116.589 32.4598 116.732 32.77 116.943 33.0226C117.154 33.2765 117.458 33.4813 117.857 33.6436C118.254 33.8034 118.789 33.9068 119.461 33.9534L118.676 38.1937Z" fill="#4F667C"/>
<path fill-rule="evenodd" clip-rule="evenodd" d="M128.967 38.1937C127.352 38.1708 126.041 38.0092 125.034 37.7106C124.028 37.4123 123.23 36.9929 122.649 36.4514C122.064 35.913 121.666 35.2577 121.455 34.4876C121.244 33.7175 121.138 32.8498 121.138 31.8846V11.924L126.693 11.0979V30.8503C126.693 31.3099 126.73 31.7239 126.805 32.0913C126.879 32.4598 127.023 32.77 127.235 33.0226C127.446 33.2765 127.75 33.4813 128.148 33.6436C128.546 33.8034 129.081 33.9068 129.752 33.9534L128.967 38.1937Z" fill="#4F667C"/>
<path fill-rule="evenodd" clip-rule="evenodd" d="M161.616 34.1592C162.634 34.1592 163.356 34.0682 163.778 33.8844C164.2 33.6999 164.412 33.3438 164.412 32.8157C164.412 32.4012 164.138 32.0405 163.592 31.7291C163.044 31.419 162.212 31.0683 161.093 30.6781C160.223 30.3798 159.434 30.0697 158.726 29.747C158.017 29.4259 157.414 29.0406 156.916 28.5932C156.419 28.1436 156.034 27.6109 155.761 26.9894C155.489 26.3697 155.352 25.6225 155.352 24.7486C155.352 23.0487 156.034 21.7036 157.402 20.7159C158.769 19.7273 160.646 19.2321 163.032 19.2321C164.226 19.2321 165.368 19.3313 166.462 19.5258C167.556 19.7206 168.426 19.9343 169.073 20.1638L168.104 24.1621C167.456 23.9554 166.755 23.7716 165.997 23.6112C165.238 23.4501 164.386 23.3701 163.444 23.3701C161.701 23.3701 160.834 23.8181 160.834 24.7145C160.834 24.9203 160.87 25.1059 160.943 25.2666C161.019 25.4277 161.168 25.5814 161.392 25.7305C161.616 25.8818 161.919 26.0422 162.306 26.2157C162.691 26.3904 163.182 26.5815 163.778 26.7897C164.996 27.2058 166.002 27.6192 166.798 28.0224C167.594 28.4282 168.221 28.8665 168.681 29.3361C169.14 29.8067 169.464 30.329 169.651 30.9018C169.837 31.475 169.931 32.1391 169.931 32.8964C169.931 34.6861 169.204 36.0391 167.75 36.9552C166.295 37.8714 164.238 38.3322 161.578 38.3322C159.838 38.3322 158.391 38.1937 157.234 37.9174C156.079 37.6419 155.277 37.4124 154.829 37.2292L155.761 33.0568C156.705 33.402 157.675 33.6716 158.67 33.8667C159.663 34.0634 160.646 34.1592 161.616 34.1592Z" fill="#4F667C"/>
<path fill-rule="evenodd" clip-rule="evenodd" d="M179.658 34.2632C180.205 34.2632 180.725 34.2519 181.225 34.2291C181.721 34.2063 182.119 34.1713 182.418 34.1247V30.2308C182.194 30.1846 181.858 30.1386 181.411 30.0917C180.964 30.0467 180.553 30.023 180.18 30.023C179.658 30.023 179.167 30.0519 178.707 30.1091C178.247 30.1666 177.843 30.2765 177.496 30.4369C177.146 30.5976 176.873 30.8155 176.675 31.0919C176.477 31.368 176.376 31.7125 176.376 32.1256C176.376 32.9303 176.669 33.4877 177.253 33.7978C177.838 34.1083 178.638 34.2632 179.658 34.2632ZM179.211 19.2321C180.852 19.2321 182.218 19.4052 183.313 19.7501C184.405 20.0943 185.282 20.5899 185.941 21.2321C186.599 21.8768 187.067 22.6578 187.34 23.5776C187.612 24.4959 187.75 25.5192 187.75 26.6445V37.3314C186.954 37.4927 185.848 37.6811 184.431 37.8994C183.015 38.1191 181.298 38.229 179.286 38.229C178.018 38.229 176.868 38.1246 175.836 37.9173C174.803 37.7107 173.916 37.3722 173.17 36.9013C172.425 36.4305 171.852 35.815 171.455 35.0568C171.057 34.2977 170.858 33.3669 170.858 32.2636C170.858 31.2068 171.088 30.3119 171.549 29.5753C172.008 28.839 172.624 28.2534 173.393 27.8176C174.164 27.3805 175.047 27.0648 176.04 26.8694C177.034 26.6746 178.068 26.5751 179.135 26.5751C179.857 26.5751 180.497 26.6052 181.057 26.6625C181.616 26.7203 182.068 26.7946 182.418 26.8868V26.4046C182.418 25.5305 182.131 24.8301 181.559 24.3005C180.988 23.7715 179.994 23.5079 178.577 23.5079C177.632 23.5079 176.699 23.5709 175.78 23.6978C174.861 23.8239 174.065 24.0025 173.393 24.2308L172.685 20.0943C173.009 20.0027 173.412 19.9062 173.898 19.8021C174.382 19.6977 174.91 19.6064 175.481 19.5258C176.055 19.4463 176.656 19.3766 177.29 19.3191C177.924 19.2616 178.564 19.2321 179.211 19.2321Z" fill="#4F667C"/>
<path fill-rule="evenodd" clip-rule="evenodd" d="M139.224 1.32092C138.922 1.32092 138.63 1.35714 138.352 1.42593C139.411 2.51164 140.452 4.28492 141.344 6.95551C142.132 6.37659 142.638 5.48325 142.638 4.47911C142.638 2.73657 141.108 1.32092 139.224 1.32092Z" fill="#992A76"/>
<path fill-rule="evenodd" clip-rule="evenodd" d="M138.352 1.4259C136.887 1.78172 135.807 3.01413 135.807 4.47939C135.807 6.22254 137.339 7.63727 139.224 7.63727C140.024 7.63727 140.76 7.38312 141.344 6.95547C140.452 4.28489 139.411 2.51161 138.352 1.4259Z" fill="#D576AC"/>
<path fill-rule="evenodd" clip-rule="evenodd" d="M157.398 7.38991C155.285 7.30529 153.496 8.8226 153.407 10.7782C153.356 11.8831 153.859 12.8921 154.688 13.5754C157.232 11.1836 159.315 10.0672 160.848 9.74547C160.342 8.42296 159.007 7.452 157.398 7.38991Z" fill="#D22724"/>
<path fill-rule="evenodd" clip-rule="evenodd" d="M160.848 9.74524C159.315 10.067 157.233 11.1834 154.688 13.5752C155.326 14.1011 156.153 14.4338 157.072 14.4697C159.188 14.5519 160.976 13.0355 161.066 11.0781C161.086 10.6118 161.009 10.1616 160.848 9.74524Z" fill="#F29325"/>
<path fill-rule="evenodd" clip-rule="evenodd" d="M146.494 6.87501C147.375 7.74187 147.326 8.53202 146.909 9.18978C146.981 9.21413 147.053 9.23269 147.124 9.25857C147.637 9.45032 148.131 9.6856 148.617 9.94067C151.291 8.37314 150.69 5.76008 150.533 5.22926C150.241 4.22573 149.613 3.33239 148.465 3.20456C147.174 3.06363 146 3.91679 145.847 5.10994C145.761 5.78565 146.025 6.41845 146.498 6.87257L146.494 6.87501Z" fill="#5567A8"/>
<path fill-rule="evenodd" clip-rule="evenodd" d="M152.672 16.8357C152.112 15.5768 151.255 14.4162 150.1 13.3567C148.965 12.3142 147.714 11.5383 146.351 11.0282C145.064 10.5503 143.754 10.312 142.417 10.312C142.332 10.312 142.249 10.3129 142.165 10.3144C140.741 10.347 139.32 10.6602 137.898 11.2528C137.871 11.2659 137.842 11.2802 137.814 11.293L152.402 24.6849C152.415 24.6593 152.431 24.6353 152.444 24.6067C153.085 23.2994 153.424 21.9912 153.46 20.6842C153.495 19.3766 153.233 18.0949 152.672 16.8357Z" fill="#4F667C"/>
<mask id="mask0_13_673" style="mask-type:alpha" maskUnits="userSpaceOnUse" x="131" y="24" width="23" height="17">
<path fill-rule="evenodd" clip-rule="evenodd" d="M131.038 24.321H153.188V40.0001H131.038V24.321Z" fill="white"/>
</mask>
<g mask="url(#mask0_13_673)">
<path fill-rule="evenodd" clip-rule="evenodd" d="M136.645 33.5537H147.931C147.931 33.5537 142.237 41.9468 136.645 33.5537ZM152.402 24.321H131.843C131.309 25.9996 131.038 27.2914 131.038 28.897C131.038 30.5348 132.84 40.0002 142.134 40.0002C151.426 40.0002 153.188 30.4897 153.188 28.8519C153.188 27.2454 152.922 25.9996 152.402 24.321Z" fill="#4F667C"/>
</g>
<path fill-rule="evenodd" clip-rule="evenodd" d="M153.962 4.68508C153.82 3.71261 153.659 3.48828 153.199 3.21952C152.599 2.86858 151.804 3.03324 151.425 3.58812C151.044 4.14391 151.224 4.87867 151.824 5.22931C153.043 5.90258 151.74 7.47498 151.726 7.49477C153.296 6.81449 154.102 5.65543 153.962 4.68508Z" fill="#A762A4"/>
<path fill-rule="evenodd" clip-rule="evenodd" d="M161.903 9.64797C161.586 9.63366 161.236 9.66319 160.848 9.74506C161.009 10.1614 161.086 10.6116 161.066 11.0779C160.976 13.0354 159.188 14.5517 157.072 14.4699C156.153 14.434 155.325 14.101 154.687 13.575C154.641 13.6198 154.592 13.6651 154.547 13.7083C154.255 13.9862 153.973 14.2589 153.698 14.5274C154.034 15.0412 154.34 15.5647 154.582 16.1101C154.728 16.4386 154.849 16.7697 154.962 17.1027C156.421 16.2155 158.062 15.4585 159.859 15.0141C164.645 13.8331 164.935 9.76606 161.903 9.64797Z" fill="#ED7226"/>
<path fill-rule="evenodd" clip-rule="evenodd" d="M136.024 10.0152L136.866 9.59821C136.919 9.57021 136.974 9.54464 137.048 9.51268C138.611 8.86193 140.206 8.50611 141.793 8.43002C141.786 8.40445 141.78 8.38162 141.773 8.35606C141.636 7.86388 141.491 7.39697 141.344 6.95563C140.76 7.38328 140.024 7.63743 139.224 7.63743C137.338 7.63743 135.806 6.22269 135.806 4.47954C135.806 3.01428 136.887 1.78187 138.352 1.42606C137.374 0.420098 136.378 6.10352e-05 135.476 6.10352e-05C132.1 0.00158291 129.975 5.85531 134.54 8.85706C135.071 9.20617 135.562 9.59699 136.024 10.0152Z" fill="#D35E9E"/>
<path fill-rule="evenodd" clip-rule="evenodd" d="M135.946 15.1488C133.97 15.1488 132.37 16.628 132.37 18.4534C132.37 19.288 132.705 20.051 133.257 20.6327C134.415 19.2207 136.247 18.3097 138.31 18.3097C138.724 18.3097 139.128 18.345 139.519 18.4147C139.497 16.6076 137.905 15.1488 135.946 15.1488Z" fill="#ACCD6C"/>
<path fill-rule="evenodd" clip-rule="evenodd" d="M148.162 23.4816L141.278 17.1615C139.677 18.4028 138.659 20.2622 138.659 22.3438C138.659 22.7331 138.708 23.1108 138.778 23.4816H148.162Z" fill="#F29325"/>
<path fill-rule="evenodd" clip-rule="evenodd" d="M144.597 23.4814C144.35 20.872 141.846 19.3054 141.846 19.3054C141.154 18.8747 140.366 18.5676 139.519 18.4148V18.4535C139.519 20.2782 137.92 21.7578 135.946 21.7578C134.873 21.7578 133.913 21.3222 133.257 20.6328C132.593 21.4421 132.171 22.421 132.036 23.4814H144.597Z" fill="#38B5AA"/>
<path fill-rule="evenodd" clip-rule="evenodd" d="M138.31 18.3097C136.248 18.3097 134.415 19.2207 133.257 20.6326C133.913 21.3221 134.873 21.7576 135.946 21.7576C137.92 21.7576 139.519 20.2781 139.519 18.4536V18.415C139.128 18.345 138.724 18.3097 138.31 18.3097Z" fill="#CEDF9A"/>
<path fill-rule="evenodd" clip-rule="evenodd" d="M139.954 18.5142C140.328 18.0101 140.772 17.5548 141.278 17.1615L139.374 15.4144C138.962 15.5274 138.589 15.7158 138.258 15.952C139.014 16.5501 139.507 17.4248 139.519 18.415C139.666 18.442 139.81 18.4792 139.954 18.5142Z" fill="#D22724"/>
</svg>
