<svg width="48" height="49" viewBox="0 0 48 49" fill="none" xmlns="http://www.w3.org/2000/svg">
<path d="M40.6182 36.1202C44.3922 32.0242 44.0122 26.7642 44.0002 26.7042V20.7042V10.7042C44.0002 9.60022 43.1062 8.70422 42.0002 8.70422H30.0002C27.7942 8.70422 26.0002 10.4982 26.0002 12.7042V26.7042C26.0002 27.8082 26.8942 28.7042 28.0002 28.7042H30.0002H34.1562C34.1142 29.5082 33.9102 30.5282 33.2982 31.4962C32.2822 33.0982 30.3682 34.1922 27.6062 34.7442L26.0002 35.0642V40.7042H28.0002C33.5662 40.7042 37.8122 39.1622 40.6182 36.1202ZM18.6042 36.1202C22.3802 32.0242 21.9982 26.7642 21.9862 26.7042V20.7042V10.7042C21.9862 9.60022 21.0922 8.70422 19.9862 8.70422H7.98616C5.78016 8.70422 3.98616 10.4982 3.98616 12.7042V26.7042C3.98616 27.8082 4.88016 28.7042 5.98616 28.7042H7.98616H12.1422C12.1002 29.5082 11.8962 30.5282 11.2842 31.4962C10.2682 33.0982 8.35416 34.1922 5.59216 34.7442L3.98616 35.0642V40.7042H5.98616C11.5522 40.7042 15.7982 39.1622 18.6042 36.1202Z" fill="#CACACA"/>
</svg>
